<svg width="15" height="15" viewBox="0 0 15 15" fill="none" xmlns="http://www.w3.org/2000/svg">
<g clip-path="url(#clip0_809_13449)">
<path d="M5.44857 0H1.14202C0.512271 0 0 0.512271 0 1.14202V5.44857C0 6.07831 0.512271 6.59058 1.14202 6.59058H5.44857C6.07831 6.59058 6.59058 6.07831 6.59058 5.44857V1.14202C6.59048 0.512271 6.07831 0 5.44857 0Z" fill="#0000BF"/>
<path d="M13.8587 0H9.55217C8.92243 0 8.41016 0.512271 8.41016 1.14202V5.44857C8.41016 6.07831 8.92243 6.59058 9.55217 6.59058H13.8587C14.4885 6.59058 15.0007 6.07831 15.0007 5.44857V1.14202C15.0007 0.512271 14.4885 0 13.8587 0Z" fill="#0000BF"/>
<path d="M5.44857 8.40625H1.14202C0.512271 8.40625 0 8.91847 0 9.54822V13.8548C0 14.4845 0.512271 14.9968 1.14202 14.9968H5.44857C6.07831 14.9968 6.59058 14.4845 6.59058 13.8548V9.54822C6.59048 8.91847 6.07831 8.40625 5.44857 8.40625Z" fill="#0000BF"/>
<path d="M13.8587 8.40625H9.55217C8.92243 8.40625 8.41016 8.91852 8.41016 9.54827V13.8548C8.41016 14.4846 8.92243 14.9968 9.55217 14.9968H13.8587C14.4885 14.9968 15.0007 14.4845 15.0007 13.8548V9.54822C15.0007 8.91847 14.4885 8.40625 13.8587 8.40625Z" fill="#0000BF"/>
</g>
<defs>
<clipPath id="clip0_809_13449">
<rect width="15" height="15" fill="white"/>
</clipPath>
</defs>
</svg>
