<svg width="19" height="19" viewBox="0 0 19 19" fill="none" xmlns="http://www.w3.org/2000/svg">
<path d="M3.95964 5.54427H15.043C15.518 5.54427 15.8346 5.2276 15.8346 4.7526C15.8346 4.2776 15.518 3.96094 15.043 3.96094H3.95964C3.48464 3.96094 3.16797 4.2776 3.16797 4.7526C3.16797 5.2276 3.48464 5.54427 3.95964 5.54427Z" fill="#0000BF"/>
<path d="M3.95964 10.2943H15.043C15.518 10.2943 15.8346 9.9776 15.8346 9.5026C15.8346 9.0276 15.518 8.71094 15.043 8.71094H3.95964C3.48464 8.71094 3.16797 9.0276 3.16797 9.5026C3.16797 9.9776 3.48464 10.2943 3.95964 10.2943Z" fill="#0000BF"/>
<path d="M3.95964 15.0443H15.043C15.518 15.0443 15.8346 14.7276 15.8346 14.2526C15.8346 13.7776 15.518 13.4609 15.043 13.4609H3.95964C3.48464 13.4609 3.16797 13.7776 3.16797 14.2526C3.16797 14.7276 3.48464 15.0443 3.95964 15.0443Z" fill="#0000BF"/>
</svg>
