<svg width="16" height="16" viewBox="0 0 16 16" fill="none" xmlns="http://www.w3.org/2000/svg">
<path d="M10.1669 7.86927C10.4933 7.6705 10.7688 7.39822 10.9714 7.07413C11.1739 6.75004 11.298 6.38312 11.3336 6.0026C11.3398 5.65853 11.2781 5.3166 11.1521 4.99636C11.0261 4.67612 10.8383 4.38383 10.5993 4.1362C10.3604 3.88856 10.075 3.69043 9.75941 3.55312C9.44385 3.41581 9.10434 3.34201 8.76026 3.33594H4.43359V12.6693H9.10026C9.42769 12.6658 9.75124 12.5978 10.0524 12.4693C10.3536 12.3408 10.6265 12.1542 10.8555 11.9202C11.0846 11.6862 11.2653 11.4093 11.3874 11.1055C11.5094 10.8016 11.5704 10.4767 11.5669 10.1493V10.0693C11.5672 9.60735 11.4355 9.15495 11.1875 8.76524C10.9395 8.37553 10.5855 8.0647 10.1669 7.86927ZM5.76693 4.66927H8.56693C8.85104 4.66048 9.13105 4.73879 9.36938 4.89371C9.60771 5.04862 9.79295 5.27272 9.90026 5.53594C10.0088 5.8878 9.97372 6.26833 9.80258 6.59437C9.63144 6.92042 9.33819 7.16546 8.98693 7.27594C8.85051 7.31591 8.70908 7.33612 8.56693 7.33594H5.76693V4.66927ZM8.83359 11.3359H5.76693V8.66927H8.83359C9.11771 8.66048 9.39772 8.73879 9.63604 8.89371C9.87437 9.04862 10.0596 9.27272 10.1669 9.53594C10.2755 9.8878 10.2404 10.2683 10.0693 10.5944C9.89811 10.9204 9.60486 11.1655 9.25359 11.2759C9.11718 11.3159 8.97574 11.3361 8.83359 11.3359Z" fill="black"/>
</svg>
