<svg width="16" height="16" viewBox="0 0 16 16" fill="none" xmlns="http://www.w3.org/2000/svg">
<g clip-path="url(#clip0_430_121)">
<path d="M5.45506 6.88226H1.59037C1.19907 6.8819 0.823897 6.72632 0.547164 6.44967C0.270431 6.17303 0.114742 5.7979 0.114258 5.4066V1.58991C0.114742 1.19862 0.270431 0.823489 0.547164 0.546841C0.823897 0.270193 1.19907 0.114621 1.59037 0.114258H5.45506C5.84628 0.114742 6.22134 0.270368 6.49797 0.547002C6.77461 0.823637 6.93023 1.19869 6.93072 1.58991V5.4066C6.93023 5.79782 6.77461 6.17288 6.49797 6.44951C6.22134 6.72615 5.84628 6.88177 5.45506 6.88226ZM1.59037 1.25712C1.5021 1.25724 1.41748 1.29232 1.35502 1.3547C1.29256 1.41707 1.25736 1.50165 1.25712 1.58991V5.4066C1.25736 5.49487 1.29256 5.57945 1.35502 5.64182C1.41748 5.70419 1.5021 5.73928 1.59037 5.7394H5.45506C5.54328 5.73928 5.62786 5.70418 5.69025 5.64179C5.75264 5.57941 5.78774 5.49483 5.78786 5.4066V1.58991C5.78774 1.50169 5.75264 1.41711 5.69025 1.35472C5.62786 1.29234 5.54328 1.25724 5.45506 1.25712H1.59037Z" fill="#084C96"/>
<path d="M5.47386 15.8857H1.60917C1.21783 15.8852 0.842655 15.7295 0.565935 15.4528C0.289215 15.1761 0.133541 14.8009 0.133057 14.4096V10.5933C0.133541 10.202 0.289229 9.82691 0.565963 9.55026C0.842696 9.27361 1.21787 9.11804 1.60917 9.11768H5.47386C5.86492 9.1184 6.23974 9.27413 6.51618 9.55074C6.79262 9.82735 6.94812 10.2023 6.9486 10.5933V14.4096C6.94824 14.8007 6.79279 15.1757 6.51634 15.4524C6.23989 15.7292 5.865 15.885 5.47386 15.8857ZM1.60917 10.2605C1.5209 10.2607 1.43628 10.2957 1.37382 10.3581C1.31136 10.4205 1.27616 10.5051 1.27591 10.5933V14.4096C1.27603 14.4979 1.31118 14.5826 1.37366 14.6451C1.43613 14.7075 1.52082 14.7427 1.60917 14.7428H5.47386C5.56213 14.7426 5.6467 14.7074 5.70908 14.6449C5.77145 14.5825 5.80654 14.4978 5.80666 14.4096V10.5933C5.80654 10.5051 5.77143 10.4205 5.70905 10.3581C5.64666 10.2958 5.56208 10.2607 5.47386 10.2605H1.60917Z" fill="#084C96"/>
<path d="M14.4101 15.8857H10.5454C10.154 15.8852 9.77887 15.7295 9.50215 15.4528C9.22543 15.1761 9.06976 14.8009 9.06927 14.4096V10.5933C9.06976 10.202 9.22545 9.82691 9.50218 9.55026C9.77891 9.27361 10.1541 9.11804 10.5454 9.11768H14.4101C14.8013 9.11816 15.1764 9.27379 15.453 9.55042C15.7296 9.82705 15.8852 10.2021 15.8857 10.5933V14.4096C15.8854 14.8009 15.7298 15.176 15.4531 15.4528C15.1765 15.7295 14.8014 15.8852 14.4101 15.8857ZM10.5454 10.2628C10.4571 10.2629 10.3725 10.298 10.31 10.3604C10.2476 10.4228 10.2124 10.5073 10.2121 10.5956V14.4118C10.2123 14.5002 10.2474 14.5849 10.3099 14.6474C10.3723 14.7098 10.457 14.745 10.5454 14.7451H14.4101C14.4983 14.7449 14.5829 14.7097 14.6453 14.6472C14.7077 14.5847 14.7428 14.5001 14.7429 14.4118V10.5933C14.7428 10.5051 14.7077 10.4205 14.6453 10.3581C14.5829 10.2958 14.4983 10.2607 14.4101 10.2605L10.5454 10.2628Z" fill="#084C96"/>
<path d="M12.48 6.88232C11.8121 6.87736 11.1605 6.67474 10.6075 6.30003C10.0545 5.92531 9.62485 5.39526 9.37266 4.7767C9.12047 4.15814 9.05706 3.47877 9.19041 2.82422C9.32376 2.16968 9.64792 1.56927 10.122 1.09868C10.5961 0.628088 11.1989 0.30839 11.8544 0.179886C12.5099 0.0513827 13.1888 0.119827 13.8055 0.376589C14.4221 0.633352 14.949 1.06694 15.3196 1.62269C15.6902 2.17844 15.888 2.83147 15.888 3.49946C15.8836 4.39963 15.5223 5.26128 14.8834 5.89545C14.2445 6.52961 13.3802 6.88451 12.48 6.88232ZM12.48 1.25946C12.0381 1.26443 11.6075 1.4 11.2425 1.64913C10.8774 1.89826 10.5942 2.24981 10.4286 2.65953C10.2629 3.06925 10.2221 3.51883 10.3113 3.95168C10.4006 4.38452 10.6159 4.7813 10.9301 5.09206C11.2444 5.40282 11.6435 5.61367 12.0773 5.69809C12.5112 5.7825 12.9602 5.73669 13.3681 5.56644C13.7759 5.39619 14.1243 5.10909 14.3693 4.74129C14.6144 4.37349 14.7451 3.94142 14.7452 3.49946C14.7415 2.90193 14.501 2.33024 14.0763 1.90986C13.6517 1.48948 13.0776 1.25475 12.48 1.25718V1.25946Z" fill="#084C96"/>
</g>
<defs>
<clipPath id="clip0_430_121">
<rect width="16" height="16" fill="white"/>
</clipPath>
</defs>
</svg>
