<svg width="16" height="16" viewBox="0 0 16 16" fill="none" xmlns="http://www.w3.org/2000/svg">
<path d="M15.3334 7.3335V12.6668C15.3334 13.0205 15.1929 13.3596 14.9428 13.6096C14.6928 13.8597 14.3536 14.0002 14 14.0002H2.00002C1.6464 14.0002 1.30726 13.8597 1.05721 13.6096C0.807163 13.3596 0.666687 13.0205 0.666687 12.6668V7.3335" stroke="#084C96" stroke-linecap="round" stroke-linejoin="round"/>
<path d="M15.3334 4.66667V3.33333C15.3334 2.97971 15.1929 2.64057 14.9428 2.39052C14.6928 2.14048 14.3536 2 14 2H2.00002C1.6464 2 1.30726 2.14048 1.05721 2.39052C0.807163 2.64057 0.666687 2.97971 0.666687 3.33333V4.66667L8.00002 8.66667L15.3334 4.66667Z" stroke="#084C96" stroke-linecap="round" stroke-linejoin="round"/>
</svg>
