<svg width="24" height="24" viewBox="0 0 24 24" fill="none" xmlns="http://www.w3.org/2000/svg">
<path d="M17.25 1.5H6.75C6.15326 1.5 5.58097 1.73705 5.15901 2.15901C4.73705 2.58097 4.5 3.15326 4.5 3.75V20.25C4.5 20.8467 4.73705 21.419 5.15901 21.841C5.58097 22.2629 6.15326 22.5 6.75 22.5H17.25C17.8467 22.5 18.419 22.2629 18.841 21.841C19.2629 21.419 19.5 20.8467 19.5 20.25V3.75C19.5 3.15326 19.2629 2.58097 18.841 2.15901C18.419 1.73705 17.8467 1.5 17.25 1.5ZM18 20.25C18 20.4489 17.921 20.6397 17.7803 20.7803C17.6397 20.921 17.4489 21 17.25 21H6.75C6.55109 21 6.36032 20.921 6.21967 20.7803C6.07902 20.6397 6 20.4489 6 20.25V3.75C6 3.55109 6.07902 3.36032 6.21967 3.21967C6.36032 3.07902 6.55109 3 6.75 3H17.25C17.4489 3 17.6397 3.07902 17.7803 3.21967C17.921 3.36032 18 3.55109 18 3.75V20.25Z" fill="black"/>
<path d="M9.45749 11.1884C9.54999 11.2278 9.64946 11.2482 9.75 11.2484C9.89721 11.2483 10.0411 11.2049 10.1638 11.1235C10.2865 11.0421 10.3826 10.9265 10.44 10.7909L10.89 9.74842H13.14L13.59 10.7909C13.6453 10.9219 13.7367 11.0344 13.8536 11.1154C13.9705 11.1964 14.1079 11.2426 14.25 11.2484C14.3505 11.2482 14.45 11.2278 14.5425 11.1884C14.7254 11.1107 14.87 10.9636 14.9445 10.7794C15.019 10.5952 15.0174 10.3889 14.94 10.2059L12.69 4.95592C12.6433 4.81313 12.5497 4.6903 12.4245 4.60727C12.2993 4.52425 12.1497 4.4859 12 4.49842C11.8507 4.48852 11.7024 4.52794 11.5777 4.6106C11.453 4.69326 11.359 4.81458 11.31 4.95592L9.06 10.2059C8.98257 10.3889 8.98095 10.5952 9.05548 10.7794C9.13001 10.9636 9.2746 11.1107 9.45749 11.1884ZM11.5275 8.24842L12 7.15342L12.4725 8.24842H11.5275Z" fill="black"/>
<path d="M7.5 16.5H12C12.1989 16.5 12.3897 16.421 12.5303 16.2803C12.671 16.1397 12.75 15.9489 12.75 15.75C12.75 15.5511 12.671 15.3603 12.5303 15.2197C12.3897 15.079 12.1989 15 12 15H7.5C7.30109 15 7.11032 15.079 6.96967 15.2197C6.82902 15.3603 6.75 15.5511 6.75 15.75C6.75 15.9489 6.82902 16.1397 6.96967 16.2803C7.11032 16.421 7.30109 16.5 7.5 16.5Z" fill="black"/>
<path d="M15.75 18H7.5C7.30109 18 7.11032 18.079 6.96967 18.2197C6.82902 18.3603 6.75 18.5511 6.75 18.75C6.75 18.9489 6.82902 19.1397 6.96967 19.2803C7.11032 19.421 7.30109 19.5 7.5 19.5H15.75C15.9489 19.5 16.1397 19.421 16.2803 19.2803C16.421 19.1397 16.5 18.9489 16.5 18.75C16.5 18.5511 16.421 18.3603 16.2803 18.2197C16.1397 18.079 15.9489 18 15.75 18Z" fill="black"/>
</svg>
