<svg width="16" height="16" viewBox="0 0 16 16" fill="none" xmlns="http://www.w3.org/2000/svg">
<path d="M8.42424 1.37495C8.18992 1.14064 7.81005 1.14064 7.57574 1.37495L4.37574 4.57495C4.14142 4.80926 4.14142 5.18917 4.37574 5.42348C4.61005 5.65779 4.98995 5.65779 5.22426 5.42348L7.4 3.24774V11.3992C7.4 11.7306 7.66863 11.9992 8 11.9992C8.33136 11.9992 8.6 11.7306 8.6 11.3992V3.24774L10.7758 5.42348C11.0101 5.65779 11.3899 5.65779 11.6242 5.42348C11.8586 5.18917 11.8586 4.80926 11.6242 4.57495L8.42424 1.37495ZM3.6 13.1992C3.26863 13.1992 3 13.4679 3 13.7992C3 14.1306 3.26863 14.3992 3.6 14.3992H12.4C12.7314 14.3992 13 14.1306 13 13.7992C13 13.4679 12.7314 13.1992 12.4 13.1992H3.6Z" fill="white"/>
</svg>
