<svg width="14" height="16" viewBox="0 0 14 16" fill="none" xmlns="http://www.w3.org/2000/svg">
<g clip-path="url(#clip0_226_1131)">
<mask id="mask0_226_1131" style="mask-type:luminance" maskUnits="userSpaceOnUse" x="0" y="0" width="14" height="16">
<path d="M13.7555 0.0507812H0.012085V15.979H13.7555V0.0507812Z" fill="white"/>
</mask>
<g mask="url(#mask0_226_1131)">
<path d="M2.82849 2.11923C2.97382 1.96473 3.07654 1.84655 3.18888 1.73864C3.40306 1.53235 3.64985 1.49145 3.79941 1.62952C3.97068 1.78761 3.94596 2.0195 3.71486 2.26596C3.60068 2.38782 3.46583 2.49036 3.30465 2.63336L4.4541 3.59781C6.07047 2.52568 7.85931 2.40362 9.70693 3.40674L12.3077 1.01403C12.1262 1.02228 12.0102 1.02891 11.8943 1.03265C11.6054 1.04195 11.3164 1.05131 11.0269 1.05814C10.8525 1.06223 10.6999 1.00973 10.6964 0.809853C10.6934 0.638095 10.8222 0.563172 10.9843 0.545692C11.6788 0.470068 12.3721 0.380013 13.0681 0.323277C13.4731 0.290293 13.6101 0.431083 13.64 0.841273C13.6725 1.28585 13.6926 1.73131 13.716 2.17653C13.7211 2.24854 13.7188 2.32089 13.7089 2.3924C13.6976 2.49511 13.6491 2.59013 13.5724 2.65946C13.4957 2.72877 13.3964 2.76758 13.293 2.76855C13.1958 2.7596 13.1048 2.71677 13.0359 2.64751C12.967 2.57824 12.9245 2.48698 12.9161 2.38965C12.911 2.29403 12.9158 2.19814 12.9303 2.10349C12.9443 1.91377 12.9599 1.72411 12.9809 1.45579C11.9922 2.29556 11.0868 3.11651 10.24 3.96917C10.4381 4.34447 10.65 4.68303 10.8027 5.04649C11.3729 6.40384 11.297 7.75425 10.6628 9.06651C10.1915 10.0417 9.35037 10.5418 8.31581 10.7529C8.10514 10.7958 7.89293 10.8304 7.649 10.875C7.67388 11.4822 7.69833 12.0776 7.72442 12.7185C8.00563 12.6955 8.25301 12.6725 8.50089 12.656C8.70302 12.6342 8.9065 12.6268 9.10968 12.6339C9.18926 12.6401 9.26424 12.6738 9.32175 12.7291C9.37933 12.7846 9.41584 12.8582 9.42515 12.9375C9.46039 13.1245 9.39189 13.2904 9.22302 13.3603C9.05605 13.4239 8.87964 13.459 8.70105 13.4644C8.40278 13.4805 8.10296 13.4689 7.78144 13.4689C7.80391 13.927 7.8264 14.3456 7.84395 14.7644C7.85205 14.9569 7.85931 15.1502 7.84966 15.3423C7.84191 15.4497 7.81689 15.5551 7.77559 15.6547C7.75126 15.7303 7.70341 15.796 7.639 15.8425C7.57465 15.8889 7.49705 15.9136 7.41769 15.9128C7.33818 15.9159 7.25982 15.8932 7.19427 15.848C7.1288 15.8028 7.07975 15.7375 7.05444 15.6621C7.00222 15.528 6.97031 15.3869 6.95973 15.2434C6.92899 14.7745 6.91335 14.3046 6.89094 13.8351C6.88586 13.7294 6.87685 13.6236 6.86705 13.4772C6.6005 13.4772 6.35071 13.4814 6.10121 13.4757C5.94441 13.4746 5.78788 13.4622 5.63287 13.4387C5.39324 13.3979 5.26886 13.248 5.28753 13.0511C5.30501 12.8668 5.42448 12.7744 5.67806 12.7689C5.97935 12.7623 6.28094 12.7683 6.58237 12.7651C6.66413 12.7643 6.74573 12.7501 6.87837 12.7369V10.9045C6.63169 10.877 6.34417 10.8634 6.06386 10.8105C4.42234 10.501 3.39389 9.41806 3.05271 7.70866C2.81082 6.49639 3.04031 5.39058 3.69287 4.35714C3.71803 4.31733 3.73855 4.27446 3.73968 4.27256L2.73785 3.19916C2.58336 3.34555 2.44888 3.47729 2.3092 3.60352C2.23823 3.66788 2.16438 3.75858 2.08107 3.77225C1.96939 3.79259 1.85414 3.77086 1.75751 3.71127C1.63635 3.61824 1.6639 3.46566 1.75094 3.35227C1.91135 3.14337 2.08574 2.94517 2.27568 2.71682L0.828925 1.22736L0.756212 1.25479C0.775099 1.58604 0.80609 1.9173 0.808416 2.24856C0.805772 2.45162 0.782846 2.65391 0.73993 2.8524C0.731579 2.92595 0.69517 2.99342 0.63831 3.04079C0.58145 3.08816 0.508517 3.11175 0.434685 3.10669C0.264125 3.1012 0.17469 2.9886 0.14086 2.83545C0.101047 2.69719 0.080558 2.55408 0.0800171 2.41022C0.117372 1.83349 0.161148 1.25669 0.223522 0.682142C0.263624 0.31255 0.384149 0.206355 0.760722 0.182181C1.33762 0.145203 1.91508 0.117687 2.49311 0.0996913C2.83957 0.0891898 3.03508 0.224528 3.03852 0.441041C3.0422 0.672213 2.82118 0.80752 2.46378 0.783698C2.13337 0.761639 1.80352 0.731393 1.47339 0.704753C1.46203 0.73224 1.45071 0.759756 1.43942 0.787243L2.82849 2.11923ZM6.60867 3.5792C6.21138 3.52718 5.68142 3.73729 5.16636 4.01498C4.65004 4.2853 4.23778 4.719 3.99396 5.24836C3.48876 6.32134 3.60133 7.38522 4.03315 8.43614C4.40359 9.33772 5.09243 9.88097 6.04883 10.0739C6.9337 10.2525 7.80237 10.1621 8.64953 9.87011C8.90994 9.78716 9.15021 9.65078 9.35496 9.46979C9.55977 9.28887 9.72461 9.06721 9.83901 8.81898C10.4722 7.42843 10.437 6.06396 9.58457 4.76185C9.36398 4.42489 9.08164 4.13752 8.70915 3.97148C8.10775 3.70358 7.47217 3.57983 6.60895 3.5792H6.60867Z" fill="#084C96"/>
</g>
</g>
<defs>
<clipPath id="clip0_226_1131">
<rect width="13.8523" height="16" fill="white"/>
</clipPath>
</defs>
</svg>
