<svg width="16" height="16" viewBox="0 0 16 16" fill="none" xmlns="http://www.w3.org/2000/svg">
<path d="M7.84167 6.0026H9.175L7.70833 12.6693H6.375L7.84167 6.0026ZM8.96167 3.33594C8.82981 3.33594 8.70092 3.37504 8.59129 3.44829C8.48165 3.52155 8.39621 3.62566 8.34575 3.74748C8.29529 3.8693 8.28209 4.00334 8.30781 4.13266C8.33353 4.26199 8.39703 4.38077 8.49026 4.47401C8.5835 4.56724 8.70229 4.63074 8.83161 4.65646C8.96093 4.68218 9.09497 4.66898 9.21679 4.61852C9.33861 4.56807 9.44273 4.48262 9.51598 4.37298C9.58923 4.26335 9.62833 4.13446 9.62833 4.0026C9.62833 3.82579 9.5581 3.65622 9.43307 3.5312C9.30805 3.40618 9.13848 3.33594 8.96167 3.33594Z" fill="black"/>
</svg>
