<svg width="16" height="24" viewBox="0 0 16 24" fill="none" xmlns="http://www.w3.org/2000/svg">
<path d="M13.3772 20.6562C13.3771 20.6421 13.3757 20.628 13.373 20.6142C13.3725 20.6116 13.3719 20.6092 13.3713 20.6067C13.3685 20.5938 13.3645 20.5811 13.3595 20.5688C13.3593 20.5681 13.3591 20.5674 13.3588 20.5667C13.3586 20.5662 13.3584 20.5656 13.3582 20.565L11.6013 16.5192C11.5477 16.3959 11.4593 16.2909 11.3469 16.2171C11.2345 16.1433 11.103 16.104 10.9685 16.1039H8.97168V14.7431C8.97154 14.6163 8.92111 14.4948 8.83145 14.4051C8.74179 14.3155 8.62022 14.265 8.49343 14.2649H7.50145C7.37466 14.265 7.2531 14.3155 7.16344 14.4051C7.07378 14.4948 7.02335 14.6163 7.02321 14.7431V16.1039H5.2291C5.09892 16.1043 4.97149 16.1414 4.86139 16.2108C4.7513 16.2803 4.663 16.3794 4.6066 16.4967L2.66691 20.5575C2.6663 20.5588 2.66592 20.5601 2.66534 20.5614C2.66315 20.5662 2.66132 20.5711 2.65946 20.576C2.65619 20.5847 2.65344 20.5935 2.65123 20.6025C2.65029 20.6063 2.64904 20.6099 2.64828 20.6138C2.64592 20.6265 2.64462 20.6394 2.64439 20.6524C2.64435 20.6544 2.6438 20.6563 2.6438 20.6584V22.6806C2.64404 22.8989 2.73086 23.1081 2.88522 23.2625C3.03957 23.4168 3.24885 23.5037 3.46713 23.5039H12.5541C12.7724 23.5037 12.9817 23.4168 13.136 23.2625C13.2904 23.1081 13.3772 22.8989 13.3774 22.6806V20.6584C13.3774 20.6576 13.3772 20.657 13.3772 20.6562ZM7.49196 17.027V14.7431C7.49196 14.7406 7.49297 14.7382 7.49475 14.7364C7.49653 14.7346 7.49894 14.7336 7.50145 14.7336H8.49343C8.49594 14.7336 8.49836 14.7346 8.50014 14.7364C8.50192 14.7382 8.50292 14.7406 8.50293 14.7431V17.027C8.50307 17.1529 8.55314 17.2736 8.64216 17.3627C8.73118 17.4517 8.85188 17.5017 8.97777 17.5019H9.37887C9.41518 17.5019 9.4507 17.5126 9.48099 17.5326C9.51128 17.5526 9.53502 17.5811 9.54924 17.6145C9.56346 17.6479 9.56754 17.6848 9.56098 17.7205C9.55441 17.7562 9.53749 17.7892 9.51231 17.8154L8.17126 19.2098C8.15424 19.2276 8.13383 19.2418 8.11122 19.2516C8.08861 19.2613 8.06427 19.2665 8.03965 19.2666H8.03775C8.01344 19.2667 7.98936 19.2619 7.9669 19.2526C7.94445 19.2433 7.92406 19.2297 7.90692 19.2124L6.51154 17.8181C6.48562 17.7922 6.46796 17.7592 6.46079 17.7233C6.45363 17.6873 6.45728 17.6501 6.47129 17.6163C6.4853 17.5824 6.50903 17.5535 6.53949 17.5331C6.56995 17.5128 6.60576 17.5019 6.6424 17.5019H7.01712C7.14301 17.5018 7.26371 17.4517 7.35273 17.3627C7.44175 17.2736 7.49182 17.1529 7.49196 17.027ZM12.9087 22.6806C12.9086 22.7746 12.8712 22.8647 12.8047 22.9312C12.7382 22.9976 12.6481 23.035 12.5541 23.0351H3.46714C3.37313 23.035 3.283 22.9976 3.21653 22.9312C3.15006 22.8647 3.11266 22.7746 3.11255 22.6806V20.8927H4.36472C4.42688 20.8927 4.4865 20.868 4.53045 20.824C4.5744 20.7801 4.5991 20.7204 4.5991 20.6583C4.5991 20.5961 4.5744 20.5365 4.53045 20.4925C4.4865 20.4486 4.42688 20.4239 4.36472 20.4239H3.25003L5.02941 16.6987C5.04751 16.6611 5.07584 16.6293 5.11115 16.607C5.14646 16.5847 5.18733 16.5728 5.2291 16.5727H7.02321V17.027C7.02321 17.0287 7.02257 17.0302 7.02142 17.0313C7.02028 17.0325 7.01873 17.0331 7.01711 17.0331H6.64239C6.51304 17.0331 6.38659 17.0715 6.27904 17.1434C6.17149 17.2153 6.08768 17.3174 6.0382 17.4369C5.98872 17.5564 5.97581 17.688 6.00108 17.8148C6.02636 17.9417 6.0887 18.0582 6.1802 18.1496L7.57561 19.544C7.63613 19.6049 7.70814 19.6531 7.78744 19.686C7.86675 19.7188 7.95179 19.7356 8.03763 19.7354C8.03985 19.7354 8.04211 19.7354 8.04433 19.7353C8.1313 19.7347 8.21726 19.7167 8.2971 19.6822C8.37695 19.6477 8.44906 19.5976 8.50915 19.5347L9.85016 18.1403C9.93906 18.0479 9.99882 17.9314 10.022 17.8052C10.0452 17.6791 10.0308 17.5489 9.98052 17.4309C9.9303 17.3129 9.84648 17.2123 9.7395 17.1416C9.63253 17.0709 9.50712 17.0331 9.37887 17.0331H8.97778C8.97616 17.0331 8.97461 17.0325 8.97347 17.0314C8.97233 17.0302 8.97168 17.0287 8.97168 17.027V16.5727H10.9685C11.0115 16.5727 11.0536 16.5853 11.0896 16.609C11.1256 16.6326 11.1539 16.6663 11.171 16.7058L12.7858 20.4239H5.43629C5.37413 20.4239 5.31451 20.4486 5.27056 20.4926C5.22661 20.5365 5.20191 20.5961 5.20191 20.6583C5.20191 20.7204 5.22661 20.7801 5.27056 20.824C5.31451 20.868 5.37413 20.8927 5.43629 20.8927H12.9087V22.6806Z" fill="#777777"/>
<path d="M15.7511 1.73068C15.609 1.56847 15.4127 1.46364 15.1989 1.43584C15.0472 1.41629 14.869 1.39583 14.6696 1.37672L14.67 1.24922C14.6704 1.10586 14.6199 0.967005 14.5274 0.857443C14.4349 0.747881 14.3065 0.674736 14.1652 0.651062C13.6342 0.561249 12.5771 0.427168 11.4614 0.537994C10.0434 0.678891 8.99461 1.16357 8.34408 1.97858C8.30434 2.02919 8.25363 2.07012 8.19576 2.09827C8.13789 2.12641 8.07438 2.14103 8.01003 2.14103C7.94568 2.14103 7.88218 2.12641 7.82431 2.09827C7.76644 2.07012 7.71572 2.02919 7.67599 1.97858C7.02549 1.16358 5.97666 0.678901 4.55869 0.538004C3.44301 0.427271 2.38587 0.561258 1.85494 0.651071C1.71364 0.674696 1.58533 0.74774 1.49288 0.857177C1.40043 0.966614 1.34985 1.10533 1.35017 1.24859L1.34982 1.37682C1.1512 1.39557 0.973661 1.41616 0.822344 1.43584C0.608663 1.46378 0.412386 1.56833 0.269966 1.73006C0.127547 1.89179 0.0486641 2.09971 0.0479689 2.31521L0.0273438 9.51428C0.0273676 9.63555 0.0522602 9.75553 0.100483 9.86681C0.148706 9.97808 0.219236 10.0783 0.307713 10.1612C0.39619 10.2442 0.500736 10.3081 0.61489 10.349C0.729045 10.39 0.850382 10.4071 0.971406 10.3993C4.19547 10.1893 5.99781 10.981 6.94188 11.6818C7.24421 11.9085 7.61189 12.031 7.98977 12.031C8.36764 12.031 8.73532 11.9085 9.03766 11.6818C9.98219 10.981 11.7845 10.1893 15.0081 10.3993C15.1291 10.4072 15.2505 10.3902 15.3646 10.3493C15.4788 10.3084 15.5834 10.2445 15.6719 10.1616C15.7604 10.0787 15.8309 9.97852 15.8791 9.86725C15.9273 9.75599 15.9522 9.63601 15.9522 9.51474L15.9728 2.31615C15.9729 2.10047 15.894 1.89222 15.7511 1.73068ZM1.81891 1.24925C1.81874 1.21673 1.83013 1.1852 1.85105 1.16029C1.87196 1.13538 1.90105 1.11871 1.93312 1.11325C2.85336 0.957629 5.96078 0.5811 7.30968 2.27103C7.42816 2.42032 7.59118 2.52793 7.77502 2.57821L7.75604 8.45546C7.75594 8.48624 7.7619 8.51674 7.77359 8.54522C7.78527 8.5737 7.80245 8.59959 7.82415 8.62143C7.84584 8.64326 7.87162 8.66061 7.90002 8.67248C7.92842 8.68436 7.95888 8.69052 7.98966 8.69062H7.99044C8.05247 8.69062 8.11196 8.66603 8.1559 8.62224C8.19983 8.57846 8.22461 8.51904 8.22482 8.45702L8.2438 2.57855C8.42818 2.52845 8.5917 2.4207 8.71048 2.27105C10.0594 0.581082 13.1668 0.95768 14.087 1.11328C14.119 1.11868 14.148 1.13524 14.1689 1.16003C14.1898 1.18481 14.2013 1.21621 14.2012 1.24864L14.1816 8.53807C14.1815 8.55729 14.1775 8.57628 14.1696 8.59384C14.1618 8.6114 14.1504 8.62714 14.1362 8.64005C14.122 8.65296 14.1052 8.66276 14.087 8.66883C14.0687 8.6749 14.0494 8.67711 14.0303 8.6753C10.7192 8.38005 8.99848 9.40191 8.26748 10.0375C8.25393 10.0491 8.23969 10.0599 8.22482 10.0697V9.27154C8.22482 9.20938 8.20013 9.14976 8.15617 9.10581C8.11222 9.06186 8.0526 9.03716 7.99044 9.03716C7.92828 9.03716 7.86867 9.06186 7.82472 9.10581C7.78076 9.14976 7.75607 9.20938 7.75607 9.27154V10.0697C7.7412 10.0598 7.72696 10.049 7.71341 10.0374C7.07133 9.47918 5.66616 8.62289 3.08991 8.62289C2.73313 8.62289 2.35339 8.63932 1.95062 8.67525C1.93154 8.67706 1.91229 8.67487 1.8941 8.66884C1.8759 8.66281 1.85916 8.65307 1.84493 8.64022C1.8307 8.62738 1.8193 8.61172 1.81144 8.59424C1.80358 8.57675 1.79945 8.55783 1.79929 8.53866L1.81891 1.24925ZM15.4834 9.5143C15.4835 9.57147 15.4718 9.62803 15.4491 9.68049C15.4263 9.73295 15.3931 9.78019 15.3514 9.81929C15.3097 9.8584 15.2604 9.88853 15.2066 9.90783C15.1528 9.92713 15.0956 9.93518 15.0386 9.93149C11.673 9.71258 9.76562 10.5577 8.75828 11.3059C8.53651 11.472 8.26687 11.5618 7.98977 11.5618C7.71266 11.5618 7.44302 11.472 7.22125 11.3059C6.32453 10.6398 4.71391 9.89633 1.99516 9.89633C1.66094 9.89633 1.30953 9.90805 0.940937 9.93149C0.883956 9.93508 0.826843 9.92697 0.773112 9.90766C0.719381 9.88835 0.670168 9.85826 0.6285 9.81922C0.586832 9.78019 0.553591 9.73304 0.530821 9.68069C0.50805 9.62833 0.496232 9.57187 0.496094 9.51477L0.516719 2.31618C0.51707 2.21442 0.55432 2.11625 0.621557 2.03988C0.688795 1.9635 0.781455 1.91411 0.882344 1.90087C1.01739 1.88357 1.17437 1.86489 1.34855 1.84759L1.33051 8.53806C1.33058 8.62235 1.34821 8.7057 1.38226 8.7828C1.41631 8.8599 1.46604 8.92907 1.52829 8.9859C1.59053 9.04273 1.66393 9.08598 1.7438 9.11289C1.82368 9.1398 1.90828 9.14979 1.99223 9.14222C5.13061 8.86225 6.73102 9.8046 7.40582 10.3912C7.56832 10.5314 7.77579 10.6085 7.9904 10.6085C8.20501 10.6085 8.41247 10.5314 8.57497 10.3912C9.24978 9.80455 10.8504 8.86197 13.9886 9.14222C14.0725 9.14979 14.157 9.13982 14.2369 9.11294C14.3167 9.08607 14.3901 9.04288 14.4523 8.98611C14.5145 8.92935 14.5643 8.86026 14.5984 8.78324C14.6325 8.70621 14.6502 8.62294 14.6503 8.5387L14.6684 1.8473C14.8443 1.86457 15.0028 1.88319 15.1389 1.90091C15.2396 1.91411 15.3321 1.96337 15.3992 2.03957C15.4664 2.11577 15.5036 2.21373 15.5041 2.31529L15.4834 9.5143Z" fill="#777777"/>
<path d="M9.662 4.99362C9.71661 4.99366 9.7695 4.97456 9.81149 4.93965C9.82149 4.93137 10.8324 4.11677 12.7175 4.61221C12.7473 4.62004 12.7783 4.62192 12.8088 4.61776C12.8393 4.61359 12.8687 4.60346 12.8953 4.58795C12.9219 4.57243 12.9451 4.55183 12.9637 4.52732C12.9824 4.50281 12.996 4.47488 13.0038 4.44511C13.0116 4.41534 13.0135 4.38432 13.0093 4.35382C13.0052 4.32333 12.995 4.29395 12.9795 4.26737C12.964 4.24078 12.9434 4.21752 12.9189 4.1989C12.8944 4.18028 12.8665 4.16667 12.8367 4.15884C10.7212 3.60284 9.56059 4.53879 9.51224 4.57884C9.47513 4.60963 9.44841 4.65112 9.43573 4.69764C9.42306 4.74417 9.42504 4.79348 9.44142 4.83884C9.4578 4.8842 9.48777 4.9234 9.52724 4.9511C9.56672 4.9788 9.61378 4.99365 9.662 4.99362Z" fill="#777777"/>
<path d="M12.8366 5.48799C10.7211 4.9319 9.56053 5.86785 9.51218 5.90795C9.46482 5.94769 9.43509 6.00453 9.42945 6.0661C9.4238 6.12766 9.44272 6.18896 9.48206 6.23665C9.52141 6.28434 9.57801 6.31454 9.63953 6.32069C9.70104 6.32684 9.7625 6.30844 9.81051 6.26949C9.852 6.23584 10.848 5.44991 12.7175 5.94136C12.7472 5.94919 12.7783 5.95107 12.8087 5.94691C12.8392 5.94274 12.8686 5.93261 12.8952 5.9171C12.9218 5.90158 12.9451 5.88098 12.9637 5.85647C12.9823 5.83196 12.9959 5.80402 13.0037 5.77426C13.0116 5.74449 13.0134 5.71347 13.0093 5.68297C13.0051 5.65247 12.995 5.6231 12.9795 5.59651C12.9639 5.56993 12.9433 5.54667 12.9188 5.52805C12.8943 5.50943 12.8664 5.49582 12.8366 5.48799Z" fill="#777777"/>
<path d="M12.8366 6.81683C10.7211 6.26079 9.56053 7.19668 9.51218 7.23679C9.46482 7.27653 9.43509 7.33337 9.42945 7.39494C9.4238 7.4565 9.44272 7.5178 9.48206 7.56549C9.52141 7.61318 9.57801 7.64338 9.63953 7.64953C9.70104 7.65568 9.7625 7.63728 9.81051 7.59833C9.852 7.56468 10.848 6.77875 12.7175 7.2702C12.7472 7.27803 12.7783 7.27991 12.8087 7.27575C12.8392 7.27158 12.8686 7.26145 12.8952 7.24594C12.9218 7.23042 12.9451 7.20982 12.9637 7.18531C12.9823 7.1608 12.9959 7.13287 13.0037 7.1031C13.0116 7.07333 13.0134 7.04231 13.0093 7.01181C13.0051 6.98132 12.995 6.95194 12.9795 6.92536C12.9639 6.89877 12.9433 6.87551 12.9188 6.85689C12.8943 6.83827 12.8664 6.82466 12.8366 6.81683Z" fill="#777777"/>
<path d="M2.92737 4.44511C2.94324 4.50519 2.98228 4.55653 3.03595 4.58785C3.08962 4.61918 3.15352 4.62793 3.21364 4.61219C5.08092 4.12147 6.07681 4.90484 6.12044 4.94027C6.14417 4.95987 6.17153 4.9746 6.20096 4.98363C6.23038 4.99265 6.2613 4.99579 6.29194 4.99287C6.32258 4.98995 6.35235 4.98102 6.37954 4.96659C6.40672 4.95216 6.43081 4.93252 6.45041 4.90879C6.47 4.88506 6.48474 4.8577 6.49376 4.82827C6.50279 4.79884 6.50593 4.76793 6.503 4.73729C6.50008 4.70665 6.49115 4.67688 6.47672 4.64969C6.4623 4.6225 6.44266 4.59842 6.41892 4.57882C6.37056 4.53872 5.20999 3.60289 3.09448 4.15882C3.03436 4.17463 2.98298 4.21367 2.95165 4.26736C2.92031 4.32105 2.91158 4.38498 2.92737 4.44511Z" fill="#777777"/>
<path d="M3.09448 5.48779C3.06471 5.49561 3.03678 5.50922 3.01227 5.52784C2.98776 5.54646 2.96716 5.56973 2.95164 5.59631C2.93613 5.62289 2.926 5.65227 2.92183 5.68277C2.91767 5.71326 2.91955 5.74428 2.92738 5.77405C2.9352 5.80382 2.94881 5.83175 2.96743 5.85626C2.98605 5.88077 3.00932 5.90137 3.0359 5.91689C3.06248 5.93241 3.09186 5.94254 3.12236 5.9467C3.15285 5.95086 3.18387 5.94898 3.21364 5.94116C5.08102 5.45021 6.07681 6.23381 6.12044 6.26919C6.16837 6.30877 6.23006 6.32769 6.29194 6.32179C6.32258 6.31887 6.35235 6.30994 6.37954 6.29551C6.40673 6.28108 6.43081 6.26144 6.45041 6.23771C6.47001 6.21398 6.48474 6.18661 6.49376 6.15719C6.50279 6.12776 6.50593 6.09684 6.503 6.0662C6.50008 6.03556 6.49115 6.0058 6.47672 5.97861C6.4623 5.95142 6.44266 5.92734 6.41892 5.90774C6.37056 5.86764 5.2099 4.93161 3.09448 5.48779Z" fill="#777777"/>
<path d="M3.09448 6.81689C3.03436 6.83269 2.98298 6.87173 2.95164 6.92541C2.9203 6.9791 2.91158 7.04303 2.92738 7.10315C2.94318 7.16327 2.98221 7.21465 3.0359 7.24599C3.08958 7.27733 3.15352 7.28606 3.21364 7.27026C5.08102 6.77931 6.07681 7.5629 6.12044 7.59829C6.16837 7.63787 6.23006 7.65679 6.29194 7.65089C6.35382 7.64498 6.41082 7.61474 6.45041 7.56681C6.48999 7.51888 6.50891 7.45719 6.503 7.39531C6.4971 7.33342 6.46686 7.27642 6.41892 7.23684C6.37056 7.19674 5.2099 6.26071 3.09448 6.81689Z" fill="#777777"/>
<path d="M6.89624 13.4878C6.89624 13.55 6.92093 13.6096 6.96489 13.6535C7.00884 13.6975 7.06846 13.7222 7.13062 13.7222H8.87255C8.93471 13.7222 8.99432 13.6975 9.03827 13.6535C9.08223 13.6096 9.10692 13.55 9.10692 13.4878C9.10692 13.4256 9.08223 13.366 9.03827 13.3221C8.99432 13.2781 8.93471 13.2534 8.87255 13.2534H7.13062C7.06846 13.2534 7.00884 13.2781 6.96489 13.3221C6.92093 13.366 6.89624 13.4256 6.89624 13.4878Z" fill="#777777"/>
<path d="M8.41378 12.9443C8.47594 12.9443 8.53555 12.9196 8.57951 12.8757C8.62346 12.8317 8.64815 12.7721 8.64815 12.71C8.64815 12.6478 8.62346 12.5882 8.57951 12.5442C8.53555 12.5003 8.47594 12.4756 8.41378 12.4756H7.56616C7.504 12.4756 7.44439 12.5003 7.40043 12.5442C7.35648 12.5882 7.33179 12.6478 7.33179 12.71C7.33179 12.7721 7.35648 12.8317 7.40043 12.8757C7.44439 12.9196 7.504 12.9443 7.56616 12.9443H8.41378Z" fill="#777777"/>
</svg>
