<svg width="24" height="24" viewBox="0 0 24 24" fill="none" xmlns="http://www.w3.org/2000/svg">
<path d="M3 5.75C3 4.23122 4.23122 3 5.75 3H18.25C19.7688 3 21 4.23122 21 5.75V12.0218C20.5368 11.7253 20.0335 11.4858 19.5 11.3135V5.75C19.5 5.05964 18.9404 4.5 18.25 4.5H5.75C5.05964 4.5 4.5 5.05964 4.5 5.75V18.25C4.5 18.9404 5.05964 19.5 5.75 19.5H11.3135C11.4858 20.0335 11.7253 20.5368 12.0218 21H5.75C4.23122 21 3 19.7688 3 18.25V5.75Z" fill="#212121"/>
<path d="M6.75 13.5H12.3761C12.0203 13.9552 11.7237 14.4591 11.4982 15H6.75C6.33579 15 6 14.6642 6 14.25C6 13.8358 6.33579 13.5 6.75 13.5Z" fill="#212121"/>
<path d="M10.25 18.5H6.75C6.33579 18.5 6 18.1642 6 17.75C6 17.3358 6.33578 17 6.75 17H10.25C10.6642 17 11 17.3358 11 17.75C11 18.1642 10.6642 18.5 10.25 18.5Z" fill="#212121"/>
<path d="M10.0001 4.99609C10.3047 4.99614 10.579 5.18047 10.6942 5.4625L12.9418 10.9652C13.0984 11.3486 12.9145 11.7865 12.531 11.9431C12.1476 12.0997 11.7097 11.9158 11.5531 11.5324L11.1301 10.4966H8.86777L8.44415 11.5326C8.28738 11.916 7.8495 12.0997 7.4661 11.943C7.0827 11.7862 6.89898 11.3483 7.05575 10.9649L9.30575 5.46223C9.42104 5.18025 9.69546 4.99603 10.0001 4.99609ZM9.48111 8.99663H10.5174L9.99957 7.72866L9.48111 8.99663Z" fill="#212121"/>
<path d="M15.75 4.99609C16.1642 4.99609 16.5 5.33188 16.5 5.74609V6.99619H17.75C18.1642 6.99619 18.5 7.33197 18.5 7.74619C18.5 8.1604 18.1642 8.49619 17.75 8.49619H16.5V9.74618C16.5 10.1604 16.1642 10.4962 15.75 10.4962C15.3358 10.4962 15 10.1604 15 9.74618V8.49619H13.75C13.3358 8.49619 13 8.1604 13 7.74619C13 7.33197 13.3358 6.99619 13.75 6.99619H15V5.74609C15 5.33188 15.3358 4.99609 15.75 4.99609Z" fill="#212121"/>
<path d="M23 17.5C23 14.4624 20.5376 12 17.5 12C14.4624 12 12 14.4624 12 17.5C12 20.5376 14.4624 23 17.5 23C20.5376 23 23 20.5376 23 17.5ZM18.0006 18L18.0011 20.5035C18.0011 20.7797 17.7773 21.0035 17.5011 21.0035C17.225 21.0035 17.0011 20.7797 17.0011 20.5035L17.0006 18H14.4961C14.22 18 13.9961 17.7762 13.9961 17.5C13.9961 17.2239 14.22 17 14.4961 17H17.0005L17 14.4993C17 14.2231 17.2239 13.9993 17.5 13.9993C17.7761 13.9993 18 14.2231 18 14.4993L18.0005 17H20.503C20.7792 17 21.003 17.2239 21.003 17.5C21.003 17.7762 20.7792 18 20.503 18H18.0006Z" fill="#212121"/>
</svg>
