<svg width="7" height="13" viewBox="0 0 7 13" fill="none" xmlns="http://www.w3.org/2000/svg">
<path d="M0.854205 12.6482C0.698352 12.6522 0.545304 12.5995 0.416337 12.4973C0.287371 12.3952 0.188894 12.2486 0.1346 12.0781C0.0803049 11.9076 0.0728897 11.7217 0.113385 11.546C0.153879 11.3704 0.240272 11.2139 0.360552 11.0982L4.94991 6.51132L0.360552 1.92603C0.277348 1.85469 0.207667 1.76411 0.155873 1.65989C0.104078 1.55568 0.0712857 1.44007 0.0595487 1.32038C0.0478118 1.2007 0.0573834 1.0795 0.087664 0.964323C0.117945 0.849151 0.168282 0.742478 0.235524 0.651053C0.302765 0.559628 0.385463 0.485468 0.478438 0.433058C0.571413 0.380648 0.672662 0.35121 0.775844 0.346565C0.879026 0.341921 0.981918 0.362113 1.07808 0.40601C1.17424 0.449906 1.26159 0.516492 1.33467 0.601601L6.58907 5.84653C6.67158 5.92869 6.73784 6.03065 6.78328 6.14557C6.82871 6.26049 6.85224 6.38558 6.85224 6.51213C6.85224 6.63869 6.82871 6.76377 6.78328 6.87869C6.73784 6.99361 6.67158 7.09567 6.58907 7.17783L1.33467 12.4278C1.20194 12.5654 1.03169 12.6434 0.854205 12.6482Z" fill="black" fill-opacity="0.53"/>
</svg>
