<svg width="7" height="7" viewBox="0 0 7 7" fill="none" xmlns="http://www.w3.org/2000/svg">
<g clip-path="url(#clip0_859_34770)">
<path d="M0.341861 7.00004C0.27425 7.00006 0.208155 6.98002 0.151935 6.94246C0.0957153 6.90491 0.0518965 6.85152 0.0260215 6.78906C0.000146414 6.72659 -0.00662241 6.65786 0.00657117 6.59155C0.0197648 6.52524 0.052328 6.46433 0.100142 6.41653L6.41655 0.100123C6.48066 0.0360154 6.56761 0 6.65827 0C6.74893 0 6.83588 0.0360154 6.89999 0.100123C6.96409 0.164231 7.00011 0.25118 7.00011 0.341842C7.00011 0.432504 6.96409 0.519453 6.89999 0.583561L0.58358 6.89997C0.551866 6.93175 0.514186 6.95695 0.472705 6.97412C0.431223 6.9913 0.386757 7.00011 0.341861 7.00004Z" fill="#8A94A6"/>
<path d="M6.65825 7.00004C6.61335 7.00011 6.56889 6.9913 6.5274 6.97412C6.48592 6.95695 6.44824 6.93175 6.41653 6.89997L0.100123 0.583561C0.0360154 0.519453 0 0.432504 0 0.341842C0 0.25118 0.0360154 0.164231 0.100123 0.100123C0.164231 0.0360154 0.25118 0 0.341842 0C0.432504 0 0.519453 0.0360154 0.583561 0.100123L6.89997 6.41653C6.94778 6.46433 6.98034 6.52524 6.99354 6.59155C7.00673 6.65786 6.99996 6.72659 6.97409 6.78906C6.94821 6.85152 6.90439 6.90491 6.84817 6.94246C6.79195 6.98002 6.72586 7.00006 6.65825 7.00004Z" fill="#8A94A6"/>
</g>
<defs>
<clipPath id="clip0_859_34770">
<rect width="7" height="7" fill="white"/>
</clipPath>
</defs>
</svg>
