<svg width="32" height="32" viewBox="0 0 32 32" fill="none" xmlns="http://www.w3.org/2000/svg">
<path d="M16 10.6666C17.4667 10.6666 18.6667 9.46659 18.6667 7.99992C18.6667 6.53325 17.4667 5.33325 16 5.33325C14.5334 5.33325 13.3334 6.53325 13.3334 7.99992C13.3334 9.46659 14.5334 10.6666 16 10.6666ZM16 13.3333C14.5334 13.3333 13.3334 14.5333 13.3334 15.9999C13.3334 17.4666 14.5334 18.6666 16 18.6666C17.4667 18.6666 18.6667 17.4666 18.6667 15.9999C18.6667 14.5333 17.4667 13.3333 16 13.3333ZM16 21.3333C14.5334 21.3333 13.3334 22.5333 13.3334 23.9999C13.3334 25.4666 14.5334 26.6666 16 26.6666C17.4667 26.6666 18.6667 25.4666 18.6667 23.9999C18.6667 22.5333 17.4667 21.3333 16 21.3333Z" fill="#084C96"/>
</svg>
