<svg width="16" height="16" viewBox="0 0 16 16" fill="none" xmlns="http://www.w3.org/2000/svg">
<g clip-path="url(#clip0_34_31815)">
<path d="M8.37276 3.1736L9.44842 6.50623L12.954 6.49942C13.3327 6.49942 13.4842 6.9851 13.1824 7.20412L10.3436 9.25944L11.4331 12.5909C11.555 12.9659 11.1054 13.2605 10.8091 13.0086L8.00085 10.9601L5.16864 13.0262C4.86269 13.249 4.45468 12.9456 4.56958 12.5913L5.65809 9.25944L2.8187 7.20488C2.50008 6.97413 2.68831 6.47221 3.07571 6.49942L6.55328 6.50623L7.62989 3.17096C7.74649 2.80774 8.26013 2.8153 8.37276 3.1736ZM8.00085 0.183594C12.3182 0.183594 15.8181 3.68346 15.8181 8.00085C15.8181 12.3182 12.3182 15.8181 8.00085 15.8181C3.68346 15.8181 0.183594 12.3182 0.183594 8.00085C0.183594 3.68365 3.68365 0.183594 8.00085 0.183594ZM8.00085 0.965206C4.11528 0.965206 0.965206 4.11528 0.965206 8.00085C0.965206 11.8864 4.11528 15.0365 8.00085 15.0365C11.8864 15.0365 15.0365 11.8864 15.0365 8.00085C15.0365 4.11528 11.8864 0.965206 8.00085 0.965206ZM8.7938 7.01533L8.00085 4.55862L7.2079 7.01533C7.15725 7.17199 7.01042 7.28557 6.83694 7.28557L4.25474 7.28047L6.34654 8.79399C6.47977 8.89075 6.54213 9.06574 6.48846 9.23072L5.68568 11.6859L7.76539 10.1686C7.89861 10.0673 8.08759 10.0603 8.22989 10.1639L10.316 11.6859L9.51759 9.24433C9.45901 9.08445 9.5106 8.89887 9.65516 8.79399L11.747 7.28047L9.18329 7.28538C9.01151 7.2937 8.8488 7.18674 8.7938 7.01533Z" fill="#084C96"/>
</g>
<defs>
<clipPath id="clip0_34_31815">
<rect width="16" height="16" fill="white"/>
</clipPath>
</defs>
</svg>
