<svg width="16" height="16" viewBox="0 0 16 16" fill="none" xmlns="http://www.w3.org/2000/svg">
<path d="M12.6654 13.3359V14.6693H3.33203V13.3359H12.6654ZM10.6654 8.8126C10.6434 9.25259 10.5128 9.68029 10.2852 10.0575C10.0576 10.4347 9.74008 10.7496 9.36105 10.9741C8.98201 11.1986 8.55326 11.3257 8.11311 11.3441C7.67295 11.3624 7.23511 11.2715 6.8387 11.0793C6.38179 10.8816 5.9943 10.552 5.72588 10.1328C5.45745 9.71349 5.32031 9.22363 5.33203 8.72594V3.33927H3.9987V8.8126C4.02125 9.44021 4.19127 10.0537 4.49498 10.6034C4.79869 11.1531 5.22756 11.6235 5.74688 11.9767C6.2662 12.3298 6.86137 12.5557 7.48421 12.6361C8.10706 12.7164 8.74008 12.649 9.33203 12.4393C10.1194 12.1768 10.8026 11.67 11.2822 10.9926C11.7618 10.3152 12.0128 9.50248 11.9987 8.6726V3.33927H10.6654V8.8126ZM10.6654 3.33594H11.9987H10.6654ZM5.33203 3.33594H3.9987H5.33203Z" fill="black"/>
</svg>
