<svg width="40" height="40" viewBox="0 0 40 40" fill="none" xmlns="http://www.w3.org/2000/svg">
<path d="M28.9618 34.4268C28.9616 34.4033 28.9592 34.3799 28.9548 34.3568C28.954 34.3526 28.9529 34.3485 28.952 34.3444C28.9472 34.3228 28.9406 34.3016 28.9323 34.2811C28.9318 34.28 28.9315 34.2788 28.9311 34.2777C28.9307 34.2768 28.9305 34.2758 28.93 34.2748L26.0019 27.5319C25.9127 27.3263 25.7653 27.1513 25.5779 27.0283C25.3906 26.9053 25.1714 26.8398 24.9472 26.8397H21.6192V24.5717C21.619 24.3604 21.5349 24.1578 21.3855 24.0084C21.2361 23.8589 21.0335 23.7749 20.8221 23.7747H19.1688C18.9575 23.7749 18.7549 23.8589 18.6055 24.0084C18.4561 24.1578 18.372 24.3604 18.3718 24.5717V26.8397H15.3816C15.1646 26.8404 14.9522 26.9021 14.7687 27.0179C14.5853 27.1337 14.4381 27.2988 14.3441 27.4944L11.1113 34.2623C11.1103 34.2644 11.1096 34.2667 11.1087 34.2688C11.105 34.2768 11.102 34.285 11.0988 34.2932C11.0934 34.3077 11.0888 34.3224 11.0851 34.3374C11.0836 34.3437 11.0815 34.3497 11.0802 34.3561C11.0763 34.3774 11.0741 34.3989 11.0737 34.4205C11.0737 34.4239 11.0728 34.4271 11.0728 34.4305V37.8008C11.0732 38.1646 11.2179 38.5134 11.4751 38.7707C11.7324 39.0279 12.0812 39.1726 12.445 39.173H27.59C27.9538 39.1726 28.3026 39.0279 28.5598 38.7707C28.8171 38.5134 28.9618 38.1646 28.9622 37.8008V34.4305C28.9622 34.4293 28.9618 34.4281 28.9618 34.4268ZM19.153 28.3782V24.5717C19.153 24.5675 19.1547 24.5635 19.1577 24.5605C19.1606 24.5576 19.1647 24.5559 19.1688 24.5559H20.8221C20.8263 24.5559 20.8303 24.5576 20.8333 24.5605C20.8363 24.5635 20.838 24.5675 20.838 24.5717V28.3782C20.8382 28.5881 20.9217 28.7892 21.07 28.9376C21.2184 29.086 21.4196 29.1694 21.6294 29.1697H22.2979C22.3584 29.1696 22.4176 29.1874 22.4681 29.2208C22.5186 29.2542 22.5581 29.3017 22.5818 29.3574C22.6055 29.4131 22.6123 29.4745 22.6014 29.534C22.5904 29.5936 22.5622 29.6486 22.5203 29.6922L20.2852 32.0162C20.2568 32.0459 20.2228 32.0695 20.1851 32.0858C20.1474 32.1021 20.1069 32.1106 20.0658 32.1109H20.0627C20.0222 32.111 19.982 32.1031 19.9446 32.0875C19.9072 32.072 19.8732 32.0493 19.8446 32.0205L17.519 29.6966C17.4758 29.6535 17.4464 29.5985 17.4344 29.5386C17.4225 29.4787 17.4286 29.4167 17.4519 29.3603C17.4753 29.3038 17.5148 29.2556 17.5656 29.2217C17.6163 29.1878 17.676 29.1697 17.7371 29.1697H18.3616C18.5714 29.1694 18.7726 29.086 18.921 28.9376C19.0693 28.7892 19.1528 28.5881 19.153 28.3782ZM28.1809 37.8008C28.1807 37.9575 28.1184 38.1077 28.0076 38.2185C27.8968 38.3292 27.7466 38.3916 27.59 38.3918H12.445C12.2883 38.3916 12.1381 38.3292 12.0273 38.2185C11.9165 38.1077 11.8542 37.9575 11.854 37.8008V34.8209H13.941C14.0446 34.8209 14.1439 34.7798 14.2172 34.7065C14.2904 34.6333 14.3316 34.5339 14.3316 34.4303C14.3316 34.3267 14.2904 34.2273 14.2172 34.1541C14.1439 34.0808 14.0446 34.0397 13.941 34.0397H12.0831L15.0488 27.8311C15.0789 27.7684 15.1262 27.7154 15.185 27.6782C15.2439 27.6411 15.312 27.6212 15.3816 27.6209H18.3718V28.3782C18.3718 28.3809 18.3707 28.3835 18.3688 28.3854C18.3669 28.3873 18.3643 28.3884 18.3616 28.3884H17.7371C17.5215 28.3884 17.3107 28.4523 17.1315 28.5721C16.9522 28.6919 16.8126 28.8622 16.7301 29.0614C16.6476 29.2606 16.6261 29.4798 16.6682 29.6912C16.7104 29.9026 16.8142 30.0968 16.9668 30.2492L19.2924 32.5732C19.3933 32.6746 19.5133 32.7551 19.6455 32.8098C19.7777 32.8645 19.9194 32.8925 20.0625 32.8921C20.0662 32.8921 20.0699 32.8921 20.0736 32.892C20.2186 32.891 20.3618 32.8609 20.4949 32.8035C20.628 32.7461 20.7482 32.6625 20.8483 32.5577L23.0834 30.2337C23.2315 30.0797 23.3311 29.8854 23.3697 29.6752C23.4084 29.465 23.3843 29.2481 23.3006 29.0514C23.2169 28.8547 23.0772 28.687 22.8989 28.5691C22.7206 28.4513 22.5116 28.3884 22.2979 28.3884H21.6294C21.6267 28.3884 21.6241 28.3873 21.6222 28.3854C21.6203 28.3835 21.6192 28.3809 21.6192 28.3782V27.6209H24.9472C25.019 27.621 25.0891 27.6421 25.1491 27.6815C25.2091 27.7209 25.2562 27.777 25.2847 27.8428L27.9761 34.0397H15.7269C15.6233 34.0397 15.5239 34.0808 15.4507 34.1541C15.3774 34.2274 15.3363 34.3267 15.3363 34.4303C15.3363 34.5339 15.3774 34.6333 15.4507 34.7065C15.5239 34.7798 15.6233 34.8209 15.7269 34.8209H28.1809V37.8008Z" fill="#084C96"/>
<path d="M32.9184 2.88431C32.6816 2.61396 32.3544 2.43924 31.9981 2.3929C31.7452 2.36032 31.4482 2.32622 31.1159 2.29437L31.1165 2.08187C31.1172 1.84293 31.033 1.61151 30.8789 1.42891C30.7248 1.2463 30.5108 1.1244 30.2752 1.08494C29.3903 0.935252 27.6283 0.711783 25.7689 0.896494C23.4056 1.13132 21.6576 1.93913 20.5734 3.29746C20.5072 3.38183 20.4226 3.45004 20.3262 3.49695C20.2297 3.54385 20.1239 3.56823 20.0166 3.56823C19.9094 3.56823 19.8035 3.54385 19.7071 3.49695C19.6107 3.45004 19.5261 3.38183 19.4599 3.29746C18.3757 1.93914 16.6277 1.13134 14.2644 0.89651C12.4049 0.711955 10.643 0.935268 9.75816 1.08496C9.52266 1.12433 9.3088 1.24607 9.15471 1.42847C9.00063 1.61086 8.91633 1.84205 8.91686 2.08082L8.91628 2.29454C8.58526 2.32579 8.28935 2.36011 8.03716 2.3929C7.68102 2.43948 7.3539 2.61372 7.11653 2.88327C6.87916 3.15282 6.74769 3.49936 6.74653 3.85853L6.71216 15.857C6.7122 16.0591 6.75369 16.2591 6.83406 16.4445C6.91443 16.63 7.03198 16.797 7.17944 16.9352C7.3269 17.0735 7.50114 17.18 7.6914 17.2482C7.88166 17.3165 8.08389 17.345 8.2856 17.332C13.659 16.982 16.6629 18.3015 18.2364 19.4695C18.7403 19.8473 19.3531 20.0515 19.9829 20.0515C20.6126 20.0515 21.2255 19.8473 21.7293 19.4695C23.3036 18.3015 26.3075 16.982 31.6801 17.332C31.8818 17.3451 32.084 17.3168 32.2743 17.2486C32.4646 17.1805 32.6389 17.0741 32.7864 16.9359C32.9338 16.7977 33.0514 16.6307 33.1318 16.4453C33.2121 16.2598 33.2536 16.0599 33.2536 15.8577L33.2879 3.86009C33.288 3.50062 33.1566 3.15354 32.9184 2.88431ZM9.6981 2.08192C9.69781 2.02771 9.7168 1.97516 9.75166 1.93365C9.78652 1.89213 9.835 1.86435 9.88845 1.85526C11.4222 1.59589 16.6012 0.968338 18.8494 3.78488C19.0469 4.03371 19.3185 4.21306 19.625 4.29685L19.5933 14.0923C19.5932 14.1436 19.6031 14.1944 19.6226 14.2419C19.642 14.2893 19.6707 14.3325 19.7068 14.3689C19.743 14.4053 19.786 14.4342 19.8333 14.454C19.8806 14.4738 19.9314 14.484 19.9827 14.4842H19.984C20.0874 14.4842 20.1865 14.4432 20.2597 14.3702C20.333 14.2973 20.3743 14.1982 20.3746 14.0949L20.4062 4.29742C20.7135 4.21392 20.9861 4.03435 21.1841 3.78492C23.4322 0.968307 28.6113 1.59597 30.1449 1.8553C30.1982 1.8643 30.2466 1.89191 30.2815 1.93321C30.3163 1.97452 30.3354 2.02685 30.3353 2.0809L30.3026 14.2299C30.3025 14.262 30.2957 14.2936 30.2827 14.3229C30.2696 14.3522 30.2507 14.3784 30.2269 14.3999C30.2032 14.4214 30.1752 14.4378 30.1449 14.4479C30.1145 14.458 30.0823 14.4617 30.0504 14.4587C24.532 13.9666 21.6641 15.6697 20.4457 16.729C20.4231 16.7483 20.3994 16.7663 20.3746 16.7827V15.4524C20.3746 15.3488 20.3335 15.2494 20.2602 15.1762C20.187 15.1029 20.0876 15.0618 19.984 15.0618C19.8804 15.0618 19.781 15.1029 19.7078 15.1762C19.6345 15.2494 19.5934 15.3488 19.5934 15.4524V16.7826C19.5686 16.7662 19.5449 16.7482 19.5223 16.7289C18.4521 15.7985 16.1102 14.3713 11.8164 14.3713C11.2218 14.3713 10.5889 14.3987 9.91763 14.4586C9.88582 14.4616 9.85374 14.458 9.82342 14.4479C9.79309 14.4379 9.76519 14.4216 9.74147 14.4002C9.71776 14.3788 9.69875 14.3527 9.68565 14.3236C9.67256 14.2944 9.66566 14.2629 9.6654 14.2309L9.6981 2.08192ZM32.4723 15.857C32.4724 15.9523 32.4529 16.0466 32.415 16.134C32.3772 16.2214 32.3218 16.3002 32.2523 16.3653C32.1828 16.4305 32.1007 16.4807 32.011 16.5129C31.9213 16.5451 31.826 16.5585 31.7309 16.5523C26.1215 16.1875 22.9426 17.5961 21.2637 18.8429C20.8941 19.1198 20.4447 19.2695 19.9829 19.2695C19.521 19.2695 19.0716 19.1198 18.702 18.8429C17.2075 17.7328 14.5231 16.4937 9.99185 16.4937C9.43481 16.4937 8.84914 16.5133 8.23481 16.5523C8.13984 16.5583 8.04466 16.5448 7.9551 16.5126C7.86555 16.4804 7.78353 16.4303 7.71409 16.3652C7.64464 16.3002 7.58924 16.2216 7.55129 16.1343C7.51334 16.0471 7.49364 15.9529 7.49341 15.8578L7.52778 3.86013C7.52837 3.69054 7.59045 3.52692 7.70251 3.39963C7.81458 3.27234 7.96901 3.19002 8.13716 3.16795C8.36224 3.13913 8.62388 3.10799 8.91417 3.07916L8.8841 14.2299C8.88423 14.3704 8.9136 14.5093 8.97035 14.6378C9.0271 14.7663 9.10999 14.8816 9.21373 14.9763C9.31748 15.0711 9.4398 15.1431 9.57293 15.188C9.70605 15.2328 9.84705 15.2495 9.98696 15.2369C15.2176 14.7703 17.8849 16.3408 19.0096 17.3185C19.2805 17.5522 19.6262 17.6807 19.9839 17.6807C20.3416 17.6807 20.6874 17.5522 20.9582 17.3185C22.0829 16.3408 24.7505 14.7698 29.9809 15.2369C30.1207 15.2495 30.2617 15.2329 30.3947 15.1881C30.5278 15.1433 30.65 15.0713 30.7538 14.9767C30.8575 14.8821 30.9404 14.7669 30.9972 14.6386C31.054 14.5102 31.0835 14.3714 31.0838 14.231L31.1138 3.07867C31.4072 3.10745 31.6712 3.13849 31.8981 3.16803C32.0659 3.19002 32.2201 3.27213 32.332 3.39912C32.4439 3.52612 32.506 3.68938 32.5067 3.85865L32.4723 15.857Z" fill="#084C96"/>
<path d="M22.77 8.32246C22.861 8.32253 22.9492 8.2907 23.0191 8.23251C23.0358 8.2187 24.7207 6.86104 27.8625 7.68678C27.9122 7.69982 27.9639 7.70296 28.0147 7.69602C28.0655 7.68908 28.1145 7.6722 28.1588 7.64633C28.2031 7.62047 28.2419 7.58614 28.2729 7.54529C28.3039 7.50444 28.3266 7.45788 28.3397 7.40827C28.3527 7.35865 28.3558 7.30696 28.3489 7.25613C28.342 7.2053 28.3251 7.15634 28.2992 7.11203C28.2733 7.06773 28.239 7.02895 28.1982 6.99792C28.1573 6.96689 28.1108 6.9442 28.0611 6.93116C24.5354 6.0045 22.601 7.5644 22.5204 7.63116C22.4585 7.68247 22.414 7.75162 22.3929 7.82916C22.3718 7.90671 22.3751 7.98889 22.4024 8.06449C22.4297 8.14009 22.4796 8.20542 22.5454 8.25159C22.6112 8.29776 22.6896 8.3225 22.77 8.32246Z" fill="#084C96"/>
<path d="M28.0611 9.14633C24.5352 8.21952 22.601 9.77942 22.5204 9.84625C22.4415 9.91249 22.3919 10.0072 22.3825 10.1098C22.3731 10.2124 22.4046 10.3146 22.4702 10.3941C22.5358 10.4736 22.6301 10.5239 22.7326 10.5342C22.8352 10.5444 22.9376 10.5137 23.0176 10.4488C23.0868 10.3927 24.7467 9.08285 27.8625 9.90195C27.9121 9.91499 27.9638 9.91813 28.0147 9.91119C28.0655 9.90425 28.1145 9.88736 28.1588 9.8615C28.2031 9.83564 28.2418 9.8013 28.2729 9.76046C28.3039 9.71961 28.3266 9.67305 28.3396 9.62343C28.3527 9.57382 28.3558 9.52212 28.3489 9.47129C28.3419 9.42047 28.325 9.3715 28.2992 9.3272C28.2733 9.2829 28.239 9.24412 28.1981 9.21309C28.1573 9.18205 28.1107 9.15937 28.0611 9.14633Z" fill="#084C96"/>
<path d="M28.0611 11.3614C24.5352 10.4346 22.601 11.9945 22.5204 12.0613C22.4415 12.1275 22.3919 12.2223 22.3825 12.3249C22.3731 12.4275 22.4046 12.5297 22.4702 12.6091C22.5358 12.6886 22.6301 12.739 22.7326 12.7492C22.8352 12.7595 22.9376 12.7288 23.0176 12.6639C23.0868 12.6078 24.7467 11.2979 27.8625 12.117C27.9121 12.13 27.9638 12.1332 28.0147 12.1262C28.0655 12.1193 28.1145 12.1024 28.1588 12.0766C28.2031 12.0507 28.2418 12.0164 28.2729 11.9755C28.3039 11.9347 28.3266 11.8881 28.3396 11.8385C28.3527 11.7889 28.3558 11.7372 28.3489 11.6864C28.3419 11.6355 28.325 11.5866 28.2992 11.5423C28.2733 11.498 28.239 11.4592 28.1981 11.4281C28.1573 11.3971 28.1107 11.3744 28.0611 11.3614Z" fill="#084C96"/>
<path d="M11.5453 7.40851C11.5717 7.50865 11.6368 7.59421 11.7263 7.64642C11.8157 7.69863 11.9222 7.71322 12.0224 7.68699C15.1345 6.86912 16.7944 8.17473 16.8671 8.23379C16.9066 8.26645 16.9522 8.29101 17.0013 8.30605C17.0503 8.32109 17.1018 8.32632 17.1529 8.32145C17.204 8.31658 17.2536 8.3017 17.2989 8.27765C17.3442 8.25361 17.3844 8.22087 17.417 8.18132C17.4497 8.14176 17.4742 8.09616 17.4893 8.04712C17.5043 7.99807 17.5096 7.94655 17.5047 7.89548C17.4998 7.84441 17.4849 7.7948 17.4609 7.74949C17.4368 7.70417 17.4041 7.66404 17.3645 7.63137C17.2839 7.56454 15.3497 6.00481 11.8238 6.93137C11.7236 6.95772 11.638 7.02279 11.5858 7.11227C11.5335 7.20175 11.519 7.30831 11.5453 7.40851Z" fill="#084C96"/>
<path d="M11.8238 9.14639C11.7742 9.15943 11.7276 9.18212 11.6868 9.21315C11.6459 9.24418 11.6116 9.28296 11.5857 9.32726C11.5599 9.37157 11.543 9.42053 11.5361 9.47136C11.5291 9.52219 11.5323 9.57388 11.5453 9.6235C11.5583 9.67311 11.581 9.71967 11.6121 9.76052C11.6431 9.80137 11.6819 9.8357 11.7262 9.86156C11.7705 9.88743 11.8194 9.90431 11.8703 9.91125C11.9211 9.91819 11.9728 9.91505 12.0224 9.90201C15.1347 9.08376 16.7944 10.3898 16.8671 10.4487C16.947 10.5147 17.0498 10.5462 17.1529 10.5364C17.204 10.5315 17.2536 10.5166 17.2989 10.4926C17.3442 10.4686 17.3844 10.4358 17.417 10.3963C17.4497 10.3567 17.4742 10.3111 17.4893 10.2621C17.5043 10.213 17.5096 10.1615 17.5047 10.1104C17.4998 10.0594 17.4849 10.0097 17.4609 9.96443C17.4368 9.91911 17.4041 9.87898 17.3645 9.84631C17.2839 9.77949 15.3495 8.21942 11.8238 9.14639Z" fill="#084C96"/>
<path d="M11.8238 11.3612C11.7236 11.3876 11.638 11.4526 11.5857 11.5421C11.5335 11.6316 11.519 11.7381 11.5453 11.8383C11.5716 11.9385 11.6367 12.0242 11.7262 12.0764C11.8156 12.1286 11.9222 12.1432 12.0224 12.1169C15.1347 11.2986 16.7944 12.6046 16.8671 12.6636C16.947 12.7295 17.0498 12.7611 17.1529 12.7512C17.256 12.7414 17.351 12.691 17.417 12.6111C17.483 12.5312 17.5145 12.4284 17.5047 12.3253C17.4948 12.2221 17.4444 12.1271 17.3645 12.0612C17.2839 11.9943 15.3495 10.4343 11.8238 11.3612Z" fill="#084C96"/>
<path d="M18.1602 22.4795C18.1602 22.5831 18.2013 22.6824 18.2746 22.7557C18.3478 22.829 18.4472 22.8701 18.5508 22.8701H21.454C21.5576 22.8701 21.657 22.829 21.7302 22.7557C21.8035 22.6824 21.8446 22.5831 21.8446 22.4795C21.8446 22.3759 21.8035 22.2765 21.7302 22.2033C21.657 22.13 21.5576 22.0889 21.454 22.0889H18.5508C18.4472 22.0889 18.3478 22.13 18.2746 22.2033C18.2013 22.2765 18.1602 22.3759 18.1602 22.4795Z" fill="#084C96"/>
<path d="M20.6893 21.574C20.7929 21.574 20.8923 21.5328 20.9655 21.4596C21.0388 21.3863 21.0799 21.2869 21.0799 21.1833C21.0799 21.0797 21.0388 20.9804 20.9655 20.9071C20.8923 20.8339 20.7929 20.7927 20.6893 20.7927H19.2766C19.173 20.7927 19.0737 20.8339 19.0004 20.9071C18.9271 20.9804 18.886 21.0797 18.886 21.1833C18.886 21.2869 18.9271 21.3863 19.0004 21.4596C19.0737 21.5328 19.173 21.574 19.2766 21.574H20.6893Z" fill="#084C96"/>
</svg>
