<svg width="22" height="22" viewBox="0 0 22 22" fill="none" xmlns="http://www.w3.org/2000/svg">
<g clip-path="url(#clip0_110_781)">
<path d="M7.50083 9.46323H2.18688C1.64885 9.46273 1.13298 9.24882 0.752473 8.86843C0.371964 8.48803 0.157892 7.97223 0.157227 7.4342V2.18626C0.157892 1.64822 0.371964 1.13242 0.752473 0.752028C1.13298 0.371638 1.64885 0.157726 2.18688 0.157227H7.50083C8.03875 0.157892 8.55446 0.371878 8.93483 0.75225C9.3152 1.13262 9.52919 1.64833 9.52985 2.18626V7.4342C9.52919 7.97213 9.3152 8.48783 8.93483 8.8682C8.55446 9.24858 8.03875 9.46256 7.50083 9.46323ZM2.18688 1.72866C2.06551 1.72882 1.94915 1.77707 1.86327 1.86283C1.77739 1.94859 1.72899 2.06489 1.72866 2.18626V7.4342C1.72899 7.55557 1.77739 7.67186 1.86327 7.75763C1.94915 7.84339 2.06551 7.89163 2.18688 7.8918H7.50083C7.62214 7.89163 7.73843 7.84337 7.82421 7.75759C7.91 7.67181 7.95826 7.55551 7.95843 7.4342V2.18626C7.95826 2.06494 7.91 1.94865 7.82421 1.86287C7.73843 1.77709 7.62214 1.72882 7.50083 1.72866H2.18688Z" fill="#084C96"/>
<path d="M7.52646 21.8429H2.21252C1.67442 21.8422 1.15856 21.6281 0.778069 21.2477C0.397579 20.8672 0.183527 20.3513 0.182861 19.8132V14.5659C0.183527 14.0279 0.397599 13.5121 0.778107 13.1317C1.15862 12.7513 1.67448 12.5374 2.21252 12.5369H7.52646C8.06417 12.5379 8.57955 12.752 8.95965 13.1323C9.33976 13.5127 9.55357 14.0282 9.55423 14.5659V19.8132C9.55373 20.351 9.34 20.8667 8.95988 21.2472C8.57976 21.6276 8.06428 21.8419 7.52646 21.8429ZM2.21252 14.1083C2.09115 14.1085 1.97479 14.1567 1.88891 14.2425C1.80303 14.3282 1.75462 14.4445 1.75429 14.5659V19.8132C1.75446 19.9347 1.80279 20.0511 1.88869 20.137C1.97458 20.2229 2.09104 20.2713 2.21252 20.2714H7.52646C7.64783 20.2711 7.76413 20.2227 7.84989 20.1368C7.93565 20.0509 7.9839 19.9346 7.98406 19.8132V14.5659C7.98389 14.4446 7.93563 14.3283 7.84985 14.2425C7.76407 14.1567 7.64777 14.1085 7.52646 14.1083H2.21252Z" fill="#084C96"/>
<path d="M19.8138 21.8429H14.4999C13.9618 21.8422 13.4459 21.6281 13.0654 21.2477C12.6849 20.8672 12.4709 20.3513 12.4702 19.8132V14.5659C12.4709 14.0279 12.685 13.5121 13.0655 13.1317C13.446 12.7513 13.9618 12.5374 14.4999 12.5369H19.8138C20.3517 12.5375 20.8674 12.7515 21.2478 13.1319C21.6282 13.5123 21.8422 14.028 21.8428 14.5659V19.8132C21.8423 20.3512 21.6284 20.8671 21.248 21.2476C20.8677 21.6281 20.3519 21.8422 19.8138 21.8429ZM14.4999 14.1114C14.3785 14.1116 14.2621 14.1598 14.1763 14.2456C14.0904 14.3314 14.042 14.4477 14.0416 14.569V19.8164C14.0418 19.9378 14.0901 20.0543 14.176 20.1402C14.2619 20.2261 14.3784 20.2744 14.4999 20.2746H19.8138C19.9352 20.2742 20.0515 20.2258 20.1372 20.14C20.223 20.0541 20.2712 19.9377 20.2714 19.8164V14.5659C20.2712 14.4446 20.223 14.3283 20.1372 14.2425C20.0514 14.1567 19.9351 14.1085 19.8138 14.1083L14.4999 14.1114Z" fill="#084C96"/>
<path d="M17.1601 9.46313C16.2416 9.4563 15.3457 9.17771 14.5854 8.66247C13.825 8.14724 13.2342 7.41842 12.8874 6.5679C12.5407 5.71739 12.4535 4.78325 12.6368 3.88325C12.8202 2.98325 13.2659 2.15768 13.9178 1.51062C14.5697 0.863559 15.3985 0.423975 16.2998 0.247282C17.2012 0.0705902 18.1346 0.164701 18.9826 0.517749C19.8305 0.870798 20.5549 1.46698 21.0645 2.23114C21.5741 2.99529 21.846 3.89321 21.8461 4.8117C21.8399 6.04943 21.3431 7.2342 20.4647 8.10618C19.5862 8.97815 18.3978 9.46614 17.1601 9.46313ZM17.1601 1.7317C16.5524 1.73852 15.9604 1.92494 15.4584 2.2675C14.9565 2.61005 14.5671 3.09343 14.3393 3.6568C14.1115 4.22016 14.0554 4.83833 14.1781 5.43349C14.3008 6.02866 14.5969 6.57422 15.0289 7.00152C15.461 7.42881 16.0099 7.71874 16.6064 7.83481C17.2029 7.95087 17.8204 7.88789 18.3812 7.6538C18.9419 7.4197 19.4209 7.02494 19.7579 6.51921C20.0948 6.01348 20.2746 5.41939 20.2746 4.8117C20.2697 3.99009 19.9389 3.20402 19.355 2.62599C18.7711 2.04797 17.9817 1.72521 17.1601 1.72856V1.7317Z" fill="#084C96"/>
</g>
<defs>
<clipPath id="clip0_110_781">
<rect width="22" height="22" fill="white"/>
</clipPath>
</defs>
</svg>
