<svg width="40" height="40" viewBox="0 0 40 40" fill="none" xmlns="http://www.w3.org/2000/svg">
<path d="M28.75 2.5H11.25C10.2554 2.5 9.30161 2.89509 8.59835 3.59835C7.89509 4.30161 7.5 5.25544 7.5 6.25V33.75C7.5 34.7446 7.89509 35.6984 8.59835 36.4016C9.30161 37.1049 10.2554 37.5 11.25 37.5H28.75C29.7446 37.5 30.6984 37.1049 31.4017 36.4016C32.1049 35.6984 32.5 34.7446 32.5 33.75V6.25C32.5 5.25544 32.1049 4.30161 31.4017 3.59835C30.6984 2.89509 29.7446 2.5 28.75 2.5ZM30 33.75C30 34.0815 29.8683 34.3995 29.6339 34.6339C29.3995 34.8683 29.0815 35 28.75 35H11.25C10.9185 35 10.6005 34.8683 10.3661 34.6339C10.1317 34.3995 10 34.0815 10 33.75V6.25C10 5.91848 10.1317 5.60054 10.3661 5.36612C10.6005 5.1317 10.9185 5 11.25 5H28.75C29.0815 5 29.3995 5.1317 29.6339 5.36612C29.8683 5.60054 30 5.91848 30 6.25V33.75Z" fill="#084C96"/>
<path d="M15.7625 18.65C15.9166 18.7156 16.0824 18.7496 16.25 18.75C16.4954 18.7498 16.7352 18.6774 16.9397 18.5418C17.1442 18.4062 17.3043 18.2134 17.4 17.9875L18.15 16.25H21.9L22.65 17.9875C22.7422 18.2058 22.8946 18.3933 23.0893 18.5283C23.2841 18.6633 23.5132 18.7402 23.75 18.75C23.9176 18.7496 24.0833 18.7156 24.2375 18.65C24.5423 18.5205 24.7833 18.2753 24.9075 17.9683C25.0317 17.6613 25.029 17.3175 24.9 17.0125L21.15 8.26247C21.0721 8.02449 20.9162 7.81976 20.7075 7.68139C20.4988 7.54302 20.2495 7.4791 20 7.49997C19.7512 7.48348 19.504 7.54917 19.2962 7.68694C19.0884 7.8247 18.9316 8.02691 18.85 8.26247L15.1 17.0125C14.971 17.3175 14.9682 17.6613 15.0925 17.9683C15.2167 18.2753 15.4577 18.5205 15.7625 18.65ZM19.2125 13.75L20 11.925L20.7875 13.75H19.2125Z" fill="#084C96"/>
<path d="M12.5 27.5H20C20.3315 27.5 20.6495 27.3683 20.8839 27.1339C21.1183 26.8995 21.25 26.5815 21.25 26.25C21.25 25.9185 21.1183 25.6005 20.8839 25.3661C20.6495 25.1317 20.3315 25 20 25H12.5C12.1685 25 11.8505 25.1317 11.6161 25.3661C11.3817 25.6005 11.25 25.9185 11.25 26.25C11.25 26.5815 11.3817 26.8995 11.6161 27.1339C11.8505 27.3683 12.1685 27.5 12.5 27.5Z" fill="#084C96"/>
<path d="M26.25 30H12.5C12.1685 30 11.8505 30.1317 11.6161 30.3661C11.3817 30.6005 11.25 30.9185 11.25 31.25C11.25 31.5815 11.3817 31.8995 11.6161 32.1339C11.8505 32.3683 12.1685 32.5 12.5 32.5H26.25C26.5815 32.5 26.8995 32.3683 27.1339 32.1339C27.3683 31.8995 27.5 31.5815 27.5 31.25C27.5 30.9185 27.3683 30.6005 27.1339 30.3661C26.8995 30.1317 26.5815 30 26.25 30Z" fill="#084C96"/>
</svg>
