<svg width="40" height="40" viewBox="0 0 40 40" fill="none" xmlns="http://www.w3.org/2000/svg">
<path d="M36.5833 7.91675H9.91667C9 7.91675 8.25 8.66675 8.25 9.58341V15.6251C8.70833 15.5001 9.25 15.4167 9.75 15.4167C10.0833 15.4167 10.4167 15.4584 10.75 15.5001V10.4167H35.75V26.2501H21.625L19.25 28.7501H36.5833C37.5 28.7501 38.25 28.0001 38.25 27.0834V9.58341C38.25 8.66675 37.5 7.91675 36.5833 7.91675Z" fill="#084C96"/>
<path d="M9.79172 24.1666C11.7501 24.1666 13.3334 22.5833 13.3334 20.6249C13.3334 18.6666 11.7501 17.0833 9.79172 17.0833C7.83338 17.0833 6.25005 18.6666 6.25005 20.6249C6.20838 22.5833 7.83338 24.1666 9.79172 24.1666Z" fill="#084C96"/>
<path d="M23.4167 20.0416C22.875 19.2083 21.7917 18.9999 20.9583 19.4999C20.7917 19.5833 20.7083 19.7499 20.625 19.8333L14.5417 26.1666C13.9583 25.8749 13.3333 25.6249 12.7083 25.4166C11.75 25.2499 10.75 25.0416 9.79167 25.0416C8.83333 25.0416 7.83333 25.2083 6.875 25.4999C5.45833 25.8749 4.20833 26.5833 3.16667 27.4583C2.91667 27.7083 2.70833 28.0833 2.625 28.4166L1.75 32.0833H14.2083V32.0416L17.75 27.9166L23.2083 22.1666C23.7083 21.6666 23.875 20.7083 23.4167 20.0416Z" fill="#084C96"/>
</svg>
