<svg width="40" height="40" viewBox="0 0 40 40" fill="none" xmlns="http://www.w3.org/2000/svg">
<path fill-rule="evenodd" clip-rule="evenodd" d="M16.5176 24.0589C12.022 23.9899 7.63891 23.7807 3.16193 23.4299C3.12049 23.4264 2.96992 23.4278 2.93539 23.4278C2.23711 23.4278 1.53952 23.8808 1.0153 24.7667C0.410954 25.7894 0 27.4362 0 29.2971C0 31.1581 0.410954 32.8049 1.0153 33.8276C1.53952 34.7135 2.23711 35.1665 2.93539 35.1665C2.96992 35.1665 3.15848 35.1672 3.21995 35.1575C7.6845 34.4249 12.0468 33.9705 16.5169 33.8124V39.3095C16.5169 39.5712 16.6647 39.8102 16.8988 39.9269C17.133 40.0442 17.4127 40.0187 17.622 39.862L19.9703 38.1012L22.3186 39.862C22.5279 40.0187 22.8076 40.0442 23.0418 39.9269C23.2759 39.8102 23.4237 39.5712 23.4237 39.3095V33.8145C27.8834 33.9747 32.3355 34.4283 36.7801 35.1575C36.8415 35.1672 37.0301 35.1665 37.0646 35.1665C37.7636 35.1665 38.4605 34.7135 38.9847 33.8276C39.589 32.8049 40 31.1581 40 29.2971C40 27.4362 39.589 25.7894 38.9847 24.7667C38.4605 23.8808 37.7636 23.4278 37.0646 23.4278C37.0301 23.4278 36.8795 23.4264 36.8381 23.4299C32.3804 23.7793 27.9083 23.9885 23.423 24.0582C23.3912 22.9417 22.4761 22.0468 21.3517 22.0468H18.5889C17.4645 22.0468 16.5494 22.9424 16.5176 24.0589ZM22.0423 32.5115C21.4387 32.8816 20.7294 33.095 19.9703 33.095C19.2112 33.095 18.5019 32.8816 17.8983 32.5115V37.9285L19.5559 36.6856C19.8018 36.5012 20.1388 36.5012 20.3847 36.6856L22.0423 37.9285V32.5115ZM37.0646 24.8088C37.3588 24.8088 37.575 25.0968 37.7954 25.4696C38.3051 26.3321 38.6186 27.7276 38.6186 29.2971C38.6186 30.8667 38.3051 32.2622 37.7954 33.1246C37.575 33.4975 37.3588 33.7855 37.0646 33.7855C36.7704 33.7855 36.5542 33.4975 36.3339 33.1246C35.8242 32.2622 35.5106 30.8667 35.5106 29.2971C35.5106 27.7276 35.8242 26.3321 36.3339 25.4696C36.5542 25.0968 36.7704 24.8088 37.0646 24.8088ZM2.93539 24.8088C3.22962 24.8088 3.4458 25.0968 3.66613 25.4696C4.17585 26.3321 4.48942 27.7276 4.48942 29.2971C4.48942 30.8667 4.17585 32.2622 3.66613 33.1246C3.4458 33.4975 3.22962 33.7855 2.93539 33.7855C2.64116 33.7855 2.42497 33.4975 2.20465 33.1246C1.69493 32.2622 1.38136 30.8667 1.38136 29.2971C1.38136 27.7276 1.69493 26.3321 2.20465 25.4696C2.42497 25.0968 2.64116 24.8088 2.93539 24.8088ZM35.0437 24.9476C31.1807 25.2155 27.3074 25.3792 23.4237 25.4393V27.1635C23.7532 27.7421 23.9417 28.4119 23.9417 29.1245C23.9417 29.8371 23.7532 30.5069 23.4237 31.0856V32.4328C27.2742 32.5695 31.1186 32.9209 34.9574 33.4782C34.4566 32.45 34.1292 30.9585 34.1292 29.2971C34.1292 27.5426 34.4946 25.9779 35.0437 24.9476ZM4.957 24.9476C5.5054 25.9779 5.87077 27.5426 5.87077 29.2971C5.87077 30.9585 5.54339 32.4486 5.04334 33.4775C8.87592 32.9175 12.6567 32.5653 16.5169 32.4307V31.0856C16.1874 30.5069 15.9989 29.8371 15.9989 29.1245C15.9989 28.4119 16.1874 27.7421 16.5169 27.1635V25.44C12.6235 25.3806 8.81376 25.2169 4.957 24.9476ZM19.9703 26.5351C21.4 26.5351 22.5603 27.6952 22.5603 29.1245C22.5603 30.5539 21.4 31.7139 19.9703 31.7139C18.5406 31.7139 17.3803 30.5539 17.3803 29.1245C17.3803 27.6952 18.5406 26.5351 19.9703 26.5351ZM22.0423 25.7376V24.1183C22.0423 23.7372 21.7329 23.4278 21.3517 23.4278H18.5889C18.2077 23.4278 17.8983 23.7372 17.8983 24.1183V25.7376C18.5019 25.3675 19.2112 25.1541 19.9703 25.1541C20.7294 25.1541 21.4387 25.3675 22.0423 25.7376ZM7.53807 8.65572V15.8039C7.53807 15.8135 7.53807 15.8225 7.53876 15.8322H6.84739C6.46614 15.8322 6.15671 16.1415 6.15671 16.5227V21.011C6.15671 21.3922 6.46614 21.7015 6.84739 21.7015H9.61011C9.99137 21.7015 10.3008 21.3922 10.3008 21.011V16.5227C10.3008 16.1415 9.99137 15.8322 9.61011 15.8322H8.91874C8.91943 15.8225 8.91943 15.8135 8.91943 15.8039V9.40907L10.9922 10.5394C10.9915 10.5505 10.9915 10.5615 10.9915 10.5726V17.2098C10.9915 18.1647 11.6442 18.9961 12.5717 19.2226L19.8184 20.991C19.9261 21.0179 20.0387 21.0179 20.1464 20.991C20.1464 20.991 25.1407 19.7688 27.3702 19.2226C28.2971 18.9961 28.9491 18.1647 28.9491 17.2105C28.9491 15.0851 28.9491 10.5726 28.9491 10.5726C28.9491 10.5567 28.9484 10.5408 28.9478 10.5249L33.0787 8.27249C33.3004 8.15096 33.4385 7.91895 33.4385 7.66622C33.4385 7.41349 33.3004 7.18079 33.0787 7.05995L20.2873 0.0844149C20.0808 -0.0281383 19.8322 -0.0281383 19.6257 0.0844149L6.83427 7.05995C6.61256 7.18079 6.47443 7.41349 6.47443 7.66622C6.47443 7.91895 6.61256 8.15096 6.83427 8.27249L7.53807 8.65572ZM8.91943 17.2132V20.3205H7.53807V17.2132H8.91943ZM9.87395 6.97571H16.4679C16.8491 6.97571 17.1585 7.28506 17.1585 7.66622C17.1585 8.04738 16.8491 8.35673 16.4679 8.35673H9.87395L19.9565 13.8553L21.784 12.8582C22.119 12.6759 22.5389 12.7995 22.7213 13.1337C22.9036 13.4686 22.78 13.8884 22.4457 14.0707L20.2873 15.2473C20.0808 15.3599 19.8322 15.3599 19.6257 15.2473L12.3728 11.2928V17.2098C12.3728 17.5281 12.5904 17.805 12.8998 17.8809L19.9813 19.61L27.0415 17.8816C27.3502 17.8057 27.5678 17.5288 27.5678 17.2105V11.2776L24.5233 12.9376C24.1883 13.1206 23.7683 12.997 23.586 12.6621C23.4037 12.3279 23.5266 11.908 23.8616 11.7257L31.3057 7.66622L19.9565 1.47717L9.87395 6.97571Z" fill="#084C96"/>
</svg>
