<svg width="24" height="24" viewBox="0 0 24 24" fill="none" xmlns="http://www.w3.org/2000/svg">
<path d="M17.3772 20.6562C17.3771 20.6421 17.3757 20.628 17.373 20.6142C17.3725 20.6116 17.3719 20.6092 17.3713 20.6067C17.3685 20.5938 17.3645 20.5811 17.3595 20.5688C17.3593 20.5681 17.3591 20.5674 17.3588 20.5667C17.3586 20.5662 17.3584 20.5656 17.3582 20.565L15.6013 16.5192C15.5477 16.3959 15.4593 16.2909 15.3469 16.2171C15.2345 16.1433 15.103 16.104 14.9685 16.1039H12.9717V14.7431C12.9715 14.6163 12.9211 14.4948 12.8314 14.4051C12.7418 14.3155 12.6202 14.265 12.4934 14.2649H11.5015C11.3747 14.265 11.2531 14.3155 11.1634 14.4051C11.0738 14.4948 11.0233 14.6163 11.0232 14.7431V16.1039H9.2291C9.09892 16.1043 8.97149 16.1414 8.86139 16.2108C8.7513 16.2803 8.663 16.3794 8.6066 16.4967L6.66691 20.5575C6.6663 20.5588 6.66592 20.5601 6.66534 20.5614C6.66315 20.5662 6.66132 20.5711 6.65946 20.576C6.65619 20.5847 6.65344 20.5935 6.65123 20.6025C6.65029 20.6063 6.64904 20.6099 6.64828 20.6138C6.64592 20.6265 6.64462 20.6394 6.64439 20.6524C6.64435 20.6544 6.6438 20.6563 6.6438 20.6584V22.6806C6.64404 22.8989 6.73086 23.1081 6.88522 23.2625C7.03957 23.4168 7.24885 23.5037 7.46713 23.5039H16.5541C16.7724 23.5037 16.9817 23.4168 17.136 23.2625C17.2904 23.1081 17.3772 22.8989 17.3774 22.6806V20.6584C17.3774 20.6576 17.3772 20.657 17.3772 20.6562ZM11.492 17.027V14.7431C11.492 14.7406 11.493 14.7382 11.4947 14.7364C11.4965 14.7346 11.4989 14.7336 11.5015 14.7336H12.4934C12.4959 14.7336 12.4984 14.7346 12.5001 14.7364C12.5019 14.7382 12.5029 14.7406 12.5029 14.7431V17.027C12.5031 17.1529 12.5531 17.2736 12.6422 17.3627C12.7312 17.4517 12.8519 17.5017 12.9778 17.5019H13.3789C13.4152 17.5019 13.4507 17.5126 13.481 17.5326C13.5113 17.5526 13.535 17.5811 13.5492 17.6145C13.5635 17.6479 13.5675 17.6848 13.561 17.7205C13.5544 17.7562 13.5375 17.7892 13.5123 17.8154L12.1713 19.2098C12.1542 19.2276 12.1338 19.2418 12.1112 19.2516C12.0886 19.2613 12.0643 19.2665 12.0397 19.2666H12.0377C12.0134 19.2667 11.9894 19.2619 11.9669 19.2526C11.9444 19.2433 11.9241 19.2297 11.9069 19.2124L10.5115 17.8181C10.4856 17.7922 10.468 17.7592 10.4608 17.7233C10.4536 17.6873 10.4573 17.6501 10.4713 17.6163C10.4853 17.5824 10.509 17.5535 10.5395 17.5331C10.57 17.5128 10.6058 17.5019 10.6424 17.5019H11.0171C11.143 17.5018 11.2637 17.4517 11.3527 17.3627C11.4417 17.2736 11.4918 17.1529 11.492 17.027ZM16.9087 22.6806C16.9086 22.7746 16.8712 22.8647 16.8047 22.9312C16.7382 22.9976 16.6481 23.035 16.5541 23.0351H7.46714C7.37313 23.035 7.283 22.9976 7.21653 22.9312C7.15006 22.8647 7.11266 22.7746 7.11255 22.6806V20.8927H8.36472C8.42688 20.8927 8.4865 20.868 8.53045 20.824C8.5744 20.7801 8.5991 20.7204 8.5991 20.6583C8.5991 20.5961 8.5744 20.5365 8.53045 20.4925C8.4865 20.4486 8.42688 20.4239 8.36472 20.4239H7.25003L9.02941 16.6987C9.04751 16.6611 9.07584 16.6293 9.11115 16.607C9.14646 16.5847 9.18733 16.5728 9.2291 16.5727H11.0232V17.027C11.0232 17.0287 11.0226 17.0302 11.0214 17.0313C11.0203 17.0325 11.0187 17.0331 11.0171 17.0331H10.6424C10.513 17.0331 10.3866 17.0715 10.279 17.1434C10.1715 17.2153 10.0877 17.3174 10.0382 17.4369C9.98872 17.5564 9.97581 17.688 10.0011 17.8148C10.0264 17.9417 10.0887 18.0582 10.1802 18.1496L11.5756 19.544C11.6361 19.6049 11.7081 19.6531 11.7874 19.686C11.8668 19.7188 11.9518 19.7356 12.0376 19.7354C12.0398 19.7354 12.0421 19.7354 12.0443 19.7353C12.1313 19.7347 12.2173 19.7167 12.2971 19.6822C12.377 19.6477 12.4491 19.5976 12.5091 19.5347L13.8502 18.1403C13.9391 18.0479 13.9988 17.9314 14.022 17.8052C14.0452 17.6791 14.0308 17.5489 13.9805 17.4309C13.9303 17.3129 13.8465 17.2123 13.7395 17.1416C13.6325 17.0709 13.5071 17.0331 13.3789 17.0331H12.9778C12.9762 17.0331 12.9746 17.0325 12.9735 17.0314C12.9723 17.0302 12.9717 17.0287 12.9717 17.027V16.5727H14.9685C15.0115 16.5727 15.0536 16.5853 15.0896 16.609C15.1256 16.6326 15.1539 16.6663 15.171 16.7058L16.7858 20.4239H9.43629C9.37413 20.4239 9.31451 20.4486 9.27056 20.4926C9.22661 20.5365 9.20191 20.5961 9.20191 20.6583C9.20191 20.7204 9.22661 20.7801 9.27056 20.824C9.31451 20.868 9.37413 20.8927 9.43629 20.8927H16.9087V22.6806Z" fill="white"/>
<path d="M19.7511 1.73068C19.609 1.56847 19.4127 1.46364 19.1989 1.43584C19.0472 1.41629 18.869 1.39583 18.6696 1.37672L18.67 1.24922C18.6704 1.10586 18.6199 0.967005 18.5274 0.857443C18.4349 0.747881 18.3065 0.674736 18.1652 0.651062C17.6342 0.561249 16.5771 0.427168 15.4614 0.537994C14.0434 0.678891 12.9946 1.16357 12.3441 1.97858C12.3043 2.02919 12.2536 2.07012 12.1958 2.09827C12.1379 2.12641 12.0744 2.14103 12.01 2.14103C11.9457 2.14103 11.8822 2.12641 11.8243 2.09827C11.7664 2.07012 11.7157 2.02919 11.676 1.97858C11.0255 1.16358 9.97666 0.678901 8.55869 0.538004C7.44301 0.427271 6.38587 0.561258 5.85494 0.651071C5.71364 0.674696 5.58533 0.74774 5.49288 0.857177C5.40043 0.966614 5.34985 1.10533 5.35017 1.24859L5.34982 1.37682C5.1512 1.39557 4.97366 1.41616 4.82234 1.43584C4.60866 1.46378 4.41239 1.56833 4.26997 1.73006C4.12755 1.89179 4.04866 2.09971 4.04797 2.31521L4.02734 9.51428C4.02737 9.63555 4.05226 9.75553 4.10048 9.86681C4.14871 9.97808 4.21924 10.0783 4.30771 10.1612C4.39619 10.2442 4.50074 10.3081 4.61489 10.349C4.72904 10.39 4.85038 10.4071 4.97141 10.3993C8.19547 10.1893 9.99781 10.981 10.9419 11.6818C11.2442 11.9085 11.6119 12.031 11.9898 12.031C12.3676 12.031 12.7353 11.9085 13.0377 11.6818C13.9822 10.981 15.7845 10.1893 19.0081 10.3993C19.1291 10.4072 19.2505 10.3902 19.3646 10.3493C19.4788 10.3084 19.5834 10.2445 19.6719 10.1616C19.7604 10.0787 19.8309 9.97852 19.8791 9.86725C19.9273 9.75599 19.9522 9.63601 19.9522 9.51474L19.9728 2.31615C19.9729 2.10047 19.894 1.89222 19.7511 1.73068ZM5.81891 1.24925C5.81874 1.21673 5.83013 1.1852 5.85105 1.16029C5.87196 1.13538 5.90105 1.11871 5.93312 1.11325C6.85336 0.957629 9.96078 0.5811 11.3097 2.27103C11.4282 2.42032 11.5912 2.52793 11.775 2.57821L11.756 8.45546C11.7559 8.48624 11.7619 8.51674 11.7736 8.54522C11.7853 8.5737 11.8025 8.59959 11.8241 8.62143C11.8458 8.64326 11.8716 8.66061 11.9 8.67248C11.9284 8.68436 11.9589 8.69052 11.9897 8.69062H11.9904C12.0525 8.69062 12.112 8.66603 12.1559 8.62224C12.1998 8.57846 12.2246 8.51904 12.2248 8.45702L12.2438 2.57855C12.4282 2.52845 12.5917 2.4207 12.7105 2.27105C14.0594 0.581082 17.1668 0.95768 18.087 1.11328C18.119 1.11868 18.148 1.13524 18.1689 1.16003C18.1898 1.18481 18.2013 1.21621 18.2012 1.24864L18.1816 8.53807C18.1815 8.55729 18.1775 8.57628 18.1696 8.59384C18.1618 8.6114 18.1504 8.62714 18.1362 8.64005C18.122 8.65296 18.1052 8.66276 18.087 8.66883C18.0687 8.6749 18.0494 8.67711 18.0303 8.6753C14.7192 8.38005 12.9985 9.40191 12.2675 10.0375C12.2539 10.0491 12.2397 10.0599 12.2248 10.0697V9.27154C12.2248 9.20938 12.2001 9.14976 12.1562 9.10581C12.1122 9.06186 12.0526 9.03716 11.9904 9.03716C11.9283 9.03716 11.8687 9.06186 11.8247 9.10581C11.7808 9.14976 11.7561 9.20938 11.7561 9.27154V10.0697C11.7412 10.0598 11.727 10.049 11.7134 10.0374C11.0713 9.47918 9.66616 8.62289 7.08991 8.62289C6.73313 8.62289 6.35339 8.63932 5.95062 8.67525C5.93154 8.67706 5.91229 8.67487 5.8941 8.66884C5.8759 8.66281 5.85916 8.65307 5.84493 8.64022C5.8307 8.62738 5.8193 8.61172 5.81144 8.59424C5.80358 8.57675 5.79945 8.55783 5.79929 8.53866L5.81891 1.24925ZM19.4834 9.5143C19.4835 9.57147 19.4718 9.62803 19.4491 9.68049C19.4263 9.73295 19.3931 9.78019 19.3514 9.81929C19.3097 9.8584 19.2604 9.88853 19.2066 9.90783C19.1528 9.92713 19.0956 9.93518 19.0386 9.93149C15.673 9.71258 13.7656 10.5577 12.7583 11.3059C12.5365 11.472 12.2669 11.5618 11.9898 11.5618C11.7127 11.5618 11.443 11.472 11.2213 11.3059C10.3245 10.6398 8.71391 9.89633 5.99516 9.89633C5.66094 9.89633 5.30953 9.90805 4.94094 9.93149C4.88396 9.93508 4.82684 9.92697 4.77311 9.90766C4.71938 9.88835 4.67017 9.85826 4.6285 9.81922C4.58683 9.78019 4.55359 9.73304 4.53082 9.68069C4.50805 9.62833 4.49623 9.57187 4.49609 9.51477L4.51672 2.31618C4.51707 2.21442 4.55432 2.11625 4.62156 2.03988C4.68879 1.9635 4.78145 1.91411 4.88234 1.90087C5.01739 1.88357 5.17437 1.86489 5.34855 1.84759L5.33051 8.53806C5.33058 8.62235 5.34821 8.7057 5.38226 8.7828C5.41631 8.8599 5.46604 8.92907 5.52829 8.9859C5.59053 9.04273 5.66393 9.08598 5.7438 9.11289C5.82368 9.1398 5.90828 9.14979 5.99223 9.14222C9.13061 8.86225 10.731 9.8046 11.4058 10.3912C11.5683 10.5314 11.7758 10.6085 11.9904 10.6085C12.205 10.6085 12.4125 10.5314 12.575 10.3912C13.2498 9.80455 14.8504 8.86197 17.9886 9.14222C18.0725 9.14979 18.157 9.13982 18.2369 9.11294C18.3167 9.08607 18.3901 9.04288 18.4523 8.98611C18.5145 8.92935 18.5643 8.86026 18.5984 8.78324C18.6325 8.70621 18.6502 8.62294 18.6503 8.5387L18.6684 1.8473C18.8443 1.86457 19.0028 1.88319 19.1389 1.90091C19.2396 1.91411 19.3321 1.96337 19.3992 2.03957C19.4664 2.11577 19.5036 2.21373 19.5041 2.31529L19.4834 9.5143Z" fill="white"/>
<path d="M13.662 4.99362C13.7166 4.99366 13.7695 4.97456 13.8115 4.93965C13.8215 4.93137 14.8324 4.11677 16.7175 4.61221C16.7473 4.62004 16.7783 4.62192 16.8088 4.61776C16.8393 4.61359 16.8687 4.60346 16.8953 4.58795C16.9219 4.57243 16.9451 4.55183 16.9637 4.52732C16.9824 4.50281 16.996 4.47488 17.0038 4.44511C17.0116 4.41534 17.0135 4.38432 17.0093 4.35382C17.0052 4.32333 16.995 4.29395 16.9795 4.26737C16.964 4.24078 16.9434 4.21752 16.9189 4.1989C16.8944 4.18028 16.8665 4.16667 16.8367 4.15884C14.7212 3.60284 13.5606 4.53879 13.5122 4.57884C13.4751 4.60963 13.4484 4.65112 13.4357 4.69764C13.4231 4.74417 13.425 4.79348 13.4414 4.83884C13.4578 4.8842 13.4878 4.9234 13.5272 4.9511C13.5667 4.9788 13.6138 4.99365 13.662 4.99362Z" fill="white"/>
<path d="M16.8366 5.48799C14.7211 4.9319 13.5605 5.86785 13.5122 5.90795C13.4648 5.94769 13.4351 6.00453 13.4294 6.0661C13.4238 6.12766 13.4427 6.18896 13.4821 6.23665C13.5214 6.28434 13.578 6.31454 13.6395 6.32069C13.701 6.32684 13.7625 6.30844 13.8105 6.26949C13.852 6.23584 14.848 5.44991 16.7175 5.94136C16.7472 5.94919 16.7783 5.95107 16.8087 5.94691C16.8392 5.94274 16.8686 5.93261 16.8952 5.9171C16.9218 5.90158 16.9451 5.88098 16.9637 5.85647C16.9823 5.83196 16.9959 5.80402 17.0037 5.77426C17.0116 5.74449 17.0134 5.71347 17.0093 5.68297C17.0051 5.65247 16.995 5.6231 16.9795 5.59651C16.9639 5.56993 16.9433 5.54667 16.9188 5.52805C16.8943 5.50943 16.8664 5.49582 16.8366 5.48799Z" fill="white"/>
<path d="M16.8366 6.81683C14.7211 6.26079 13.5605 7.19668 13.5122 7.23679C13.4648 7.27653 13.4351 7.33337 13.4294 7.39494C13.4238 7.4565 13.4427 7.5178 13.4821 7.56549C13.5214 7.61318 13.578 7.64338 13.6395 7.64953C13.701 7.65568 13.7625 7.63728 13.8105 7.59833C13.852 7.56468 14.848 6.77875 16.7175 7.2702C16.7472 7.27803 16.7783 7.27991 16.8087 7.27575C16.8392 7.27158 16.8686 7.26145 16.8952 7.24594C16.9218 7.23042 16.9451 7.20982 16.9637 7.18531C16.9823 7.1608 16.9959 7.13287 17.0037 7.1031C17.0116 7.07333 17.0134 7.04231 17.0093 7.01181C17.0051 6.98132 16.995 6.95194 16.9795 6.92536C16.9639 6.89877 16.9433 6.87551 16.9188 6.85689C16.8943 6.83827 16.8664 6.82466 16.8366 6.81683Z" fill="white"/>
<path d="M6.92737 4.44511C6.94324 4.50519 6.98228 4.55653 7.03595 4.58785C7.08962 4.61918 7.15352 4.62793 7.21364 4.61219C9.08092 4.12147 10.0768 4.90484 10.1204 4.94027C10.1442 4.95987 10.1715 4.9746 10.201 4.98363C10.2304 4.99265 10.2613 4.99579 10.2919 4.99287C10.3226 4.98995 10.3523 4.98102 10.3795 4.96659C10.4067 4.95216 10.4308 4.93252 10.4504 4.90879C10.47 4.88506 10.4847 4.8577 10.4938 4.82827C10.5028 4.79884 10.5059 4.76793 10.503 4.73729C10.5001 4.70665 10.4911 4.67688 10.4767 4.64969C10.4623 4.6225 10.4427 4.59842 10.4189 4.57882C10.3706 4.53872 9.20999 3.60289 7.09448 4.15882C7.03436 4.17463 6.98298 4.21367 6.95165 4.26736C6.92031 4.32105 6.91158 4.38498 6.92737 4.44511Z" fill="white"/>
<path d="M7.09448 5.48779C7.06471 5.49561 7.03678 5.50922 7.01227 5.52784C6.98776 5.54646 6.96716 5.56973 6.95164 5.59631C6.93613 5.62289 6.926 5.65227 6.92183 5.68277C6.91767 5.71326 6.91955 5.74428 6.92738 5.77405C6.9352 5.80382 6.94881 5.83175 6.96743 5.85626C6.98605 5.88077 7.00932 5.90137 7.0359 5.91689C7.06248 5.93241 7.09186 5.94254 7.12236 5.9467C7.15285 5.95086 7.18387 5.94898 7.21364 5.94116C9.08102 5.45021 10.0768 6.23381 10.1204 6.26919C10.1684 6.30877 10.2301 6.32769 10.2919 6.32179C10.3226 6.31887 10.3523 6.30994 10.3795 6.29551C10.4067 6.28108 10.4308 6.26144 10.4504 6.23771C10.47 6.21398 10.4847 6.18661 10.4938 6.15719C10.5028 6.12776 10.5059 6.09684 10.503 6.0662C10.5001 6.03556 10.4912 6.0058 10.4767 5.97861C10.4623 5.95142 10.4427 5.92734 10.4189 5.90774C10.3706 5.86764 9.2099 4.93161 7.09448 5.48779Z" fill="white"/>
<path d="M7.09448 6.81689C7.03436 6.83269 6.98298 6.87173 6.95164 6.92541C6.9203 6.9791 6.91158 7.04303 6.92738 7.10315C6.94318 7.16327 6.98221 7.21465 7.0359 7.24599C7.08958 7.27733 7.15352 7.28606 7.21364 7.27026C9.08102 6.77931 10.0768 7.5629 10.1204 7.59829C10.1684 7.63787 10.2301 7.65679 10.2919 7.65089C10.3538 7.64498 10.4108 7.61474 10.4504 7.56681C10.49 7.51888 10.5089 7.45719 10.503 7.39531C10.4971 7.33342 10.4669 7.27642 10.4189 7.23684C10.3706 7.19674 9.2099 6.26071 7.09448 6.81689Z" fill="white"/>
<path d="M10.8962 13.4878C10.8962 13.55 10.9209 13.6096 10.9649 13.6535C11.0088 13.6975 11.0685 13.7222 11.1306 13.7222H12.8725C12.9347 13.7222 12.9943 13.6975 13.0383 13.6535C13.0822 13.6096 13.1069 13.55 13.1069 13.4878C13.1069 13.4256 13.0822 13.366 13.0383 13.3221C12.9943 13.2781 12.9347 13.2534 12.8725 13.2534H11.1306C11.0685 13.2534 11.0088 13.2781 10.9649 13.3221C10.9209 13.366 10.8962 13.4256 10.8962 13.4878Z" fill="white"/>
<path d="M12.4138 12.9443C12.4759 12.9443 12.5356 12.9196 12.5795 12.8757C12.6235 12.8317 12.6482 12.7721 12.6482 12.71C12.6482 12.6478 12.6235 12.5882 12.5795 12.5442C12.5356 12.5003 12.4759 12.4756 12.4138 12.4756H11.5662C11.504 12.4756 11.4444 12.5003 11.4004 12.5442C11.3565 12.5882 11.3318 12.6478 11.3318 12.71C11.3318 12.7721 11.3565 12.8317 11.4004 12.8757C11.4444 12.9196 11.504 12.9443 11.5662 12.9443H12.4138Z" fill="white"/>
</svg>
