<svg width="24" height="24" viewBox="0 0 24 24" fill="none" xmlns="http://www.w3.org/2000/svg">
<g clip-path="url(#clip0_155_1225)">
<path d="M3 6V13.5" stroke="white" stroke-width="2" stroke-linecap="round" stroke-linejoin="round"/>
<path d="M5.0813 20.2499C5.83173 19.0989 6.85746 18.1533 8.06558 17.4988C9.27369 16.8443 10.626 16.5015 12 16.5015C13.3741 16.5015 14.7264 16.8443 15.9345 17.4988C17.1426 18.1533 18.1684 19.0989 18.9188 20.2499" stroke="white" stroke-linecap="round" stroke-linejoin="round"/>
<path d="M21 6L12 9L3 6L12 3L21 6Z" stroke="white" stroke-linecap="round" stroke-linejoin="round"/>
<path d="M15.8719 7.7063C16.5599 8.45759 17.0144 9.39281 17.1801 10.398C17.3458 11.4031 17.2155 12.4347 16.805 13.3671C16.3946 14.2994 15.7218 15.0923 14.8686 15.6489C14.0154 16.2055 13.0187 16.5019 12 16.5019C10.9813 16.5019 9.9846 16.2055 9.13141 15.6489C8.27822 15.0923 7.6054 14.2994 7.19497 13.3671C6.78453 12.4347 6.65422 11.4031 6.81991 10.398C6.98561 9.39281 7.44015 8.45759 8.12813 7.7063" stroke="white" stroke-linecap="round" stroke-linejoin="round"/>
</g>
<defs>
<clipPath id="clip0_155_1225">
<rect width="24" height="24" fill="white"/>
</clipPath>
</defs>
</svg>
