<!DOCTYPE svg PUBLIC "-//W3C//DTD SVG 1.1//EN" "http://www.w3.org/Graphics/SVG/1.1/DTD/svg11.dtd">
<!-- Uploaded to: SVG Repo, www.svgrepo.com, Transformed by: SVG Repo Mixer Tools -->
<svg fill="#ffffff" width="800px" height="800px" viewBox="0 0 64 64" style="fill-rule:evenodd;clip-rule:evenodd;stroke-linejoin:round;stroke-miterlimit:2;" version="1.1" xml:space="preserve" xmlns="http://www.w3.org/2000/svg" xmlns:serif="http://www.serif.com/" xmlns:xlink="http://www.w3.org/1999/xlink" stroke="#ffffff">
<g id="SVGRepo_bgCarrier" stroke-width="0"/>
<g id="SVGRepo_tracerCarrier" stroke-linecap="round" stroke-linejoin="round"/>
<g id="SVGRepo_iconCarrier"> <g id="ICON"> <path d="M27.001,37.914c-6.509,-0.1 -12.855,-0.403 -19.337,-0.911c-0.06,-0.005 -0.278,-0.003 -0.328,-0.003c-1.011,0 -2.021,0.656 -2.78,1.939c-0.875,1.481 -1.47,3.866 -1.47,6.561c0,2.695 0.595,5.08 1.47,6.561c0.759,1.283 1.769,1.939 2.78,1.939c0.05,0 0.323,0.001 0.412,-0.013c6.464,-1.061 12.78,-1.719 19.252,-1.948l0,7.961c0,0.379 0.214,0.725 0.553,0.894c0.339,0.17 0.744,0.133 1.047,-0.094l3.4,-2.55c-0,-0 3.4,2.55 3.4,2.55c0.303,0.227 0.708,0.264 1.047,0.094c0.339,-0.169 0.553,-0.515 0.553,-0.894l0,-7.958c6.457,0.232 12.903,0.889 19.338,1.945c0.089,0.014 0.362,0.013 0.412,0.013c1.012,0 2.021,-0.656 2.78,-1.939c0.875,-1.481 1.47,-3.866 1.47,-6.561c0,-2.695 -0.595,-5.08 -1.47,-6.561c-0.759,-1.283 -1.768,-1.939 -2.78,-1.939c-0.05,0 -0.268,-0.002 -0.328,0.003c-6.454,0.506 -12.929,0.809 -19.423,0.91c-0.046,-1.617 -1.371,-2.913 -2.999,-2.913l-4,-0c-1.628,0 -2.953,1.297 -2.999,2.914Zm7.999,12.241c-0.874,0.536 -1.901,0.845 -3,0.845c-1.099,-0 -2.126,-0.309 -3,-0.845l0,7.845l2.4,-1.8c0.356,-0.267 0.844,-0.267 1.2,-0c-0,-0 2.4,1.8 2.4,1.8l0,-7.845Zm21.75,-11.155c0.426,0 0.739,0.417 1.058,0.957c0.738,1.249 1.192,3.27 1.192,5.543c0,2.273 -0.454,4.294 -1.192,5.543c-0.319,0.54 -0.632,0.957 -1.058,0.957c-0.426,0 -0.739,-0.417 -1.058,-0.957c-0.738,-1.249 -1.192,-3.27 -1.192,-5.543c0,-2.273 0.454,-4.294 1.192,-5.543c0.319,-0.54 0.632,-0.957 1.058,-0.957Zm-49.414,0c0.426,0 0.739,0.417 1.058,0.957c0.738,1.249 1.192,3.27 1.192,5.543c0,2.273 -0.454,4.294 -1.192,5.543c-0.319,0.54 -0.632,0.957 -1.058,0.957c-0.426,0 -0.739,-0.417 -1.058,-0.957c-0.738,-1.249 -1.192,-3.27 -1.192,-5.543c0,-2.273 0.454,-4.294 1.192,-5.543c0.319,-0.54 0.632,-0.957 1.058,-0.957Zm46.488,0.201c-5.593,0.388 -11.201,0.625 -16.824,0.712l-0,2.497c0.477,0.838 0.75,1.808 0.75,2.84c0,1.032 -0.273,2.002 -0.75,2.84l0,1.951c5.575,0.198 11.141,0.707 16.699,1.514c-0.725,-1.489 -1.199,-3.649 -1.199,-6.055c0,-2.541 0.529,-4.807 1.324,-6.299Zm-43.561,0c0.794,1.492 1.323,3.758 1.323,6.299c0,2.406 -0.474,4.564 -1.198,6.054c5.549,-0.811 11.023,-1.321 16.612,-1.516l0,-1.948c-0.477,-0.838 -0.75,-1.808 -0.75,-2.84c0,-1.032 0.273,-2.002 0.75,-2.84l-0,-2.496c-5.637,-0.086 -11.153,-0.323 -16.737,-0.713Zm21.737,2.299c2.07,-0 3.75,1.68 3.75,3.75c0,2.07 -1.68,3.75 -3.75,3.75c-2.07,-0 -3.75,-1.68 -3.75,-3.75c0,-2.07 1.68,-3.75 3.75,-3.75Zm3,-1.155l-0,-2.345c0,-0.552 -0.448,-1 -1,-1c-0,0 -4,-0 -4,0c-0.552,0 -1,0.448 -1,1l-0,2.345c0.874,-0.536 1.901,-0.845 3,-0.845c1.099,-0 2.126,0.309 3,0.845Zm-21,-24.738l-0,10.352c0,0.014 0,0.027 0.001,0.041l-1.001,-0c-0.552,-0 -1,0.448 -1,1l0,6.5c0,0.552 0.448,1 1,1l4,-0c0.552,-0 1,-0.448 1,-1l0,-6.5c0,-0.552 -0.448,-1 -1,-1l-1.001,-0c0.001,-0.014 0.001,-0.027 0.001,-0.041l-0,-9.261l3.001,1.637c-0.001,0.016 -0.001,0.032 -0.001,0.048l-0,9.612c-0,1.383 0.945,2.587 2.288,2.915l10.492,2.561c0.156,0.039 0.319,0.039 0.475,0c-0,0 7.231,-1.77 10.459,-2.561c1.342,-0.328 2.286,-1.532 2.286,-2.914c-0,-3.078 -0,-9.613 -0,-9.613c0,-0.023 -0.001,-0.046 -0.002,-0.069l5.981,-3.262c0.321,-0.176 0.521,-0.512 0.521,-0.878c0,-0.366 -0.2,-0.703 -0.521,-0.878l-18.52,-10.102c-0.299,-0.163 -0.659,-0.163 -0.958,0l-18.52,10.102c-0.321,0.175 -0.521,0.512 -0.521,0.878c-0,0.366 0.2,0.702 0.521,0.878l1.019,0.555Zm2,12.393l0,4.5c0,-0 -2,0 -2,0c0,0 0,-4.5 0,-4.5l2,-0Zm1.382,-14.826l9.547,-0c0.552,-0 1,0.448 1,1c0,0.552 -0.448,1 -1,1l-9.547,-0l14.598,7.963l2.646,-1.444c0.485,-0.264 1.093,-0.085 1.357,0.399c0.264,0.485 0.085,1.093 -0.399,1.357l-3.125,1.704c-0.299,0.163 -0.659,0.163 -0.958,0l-10.501,-5.727l-0,8.569c-0,0.461 0.315,0.862 0.763,0.972c-0,-0 10.253,2.504 10.253,2.504l10.222,-2.503c0.447,-0.11 0.762,-0.511 0.762,-0.972l-0,-8.592l-4.408,2.404c-0.485,0.265 -1.093,0.086 -1.357,-0.399c-0.264,-0.484 -0.086,-1.092 0.399,-1.356c-0,-0 10.778,-5.879 10.778,-5.879c-0,-0 -16.432,-8.963 -16.432,-8.963l-14.598,7.963Z"/> </g> </g>
</svg>