<svg width="24" height="24" viewBox="0 0 24 24" fill="none" xmlns="http://www.w3.org/2000/svg">
<path d="M12 12C13.0384 12 14.0534 11.6921 14.9167 11.1152C15.7801 10.5383 16.453 9.7184 16.8504 8.75909C17.2477 7.79978 17.3517 6.74418 17.1491 5.72578C16.9466 4.70738 16.4465 3.77192 15.7123 3.03769C14.9781 2.30347 14.0426 1.80345 13.0242 1.60088C12.0058 1.39831 10.9502 1.50227 9.99091 1.89963C9.0316 2.29699 8.21166 2.9699 7.63478 3.83326C7.05791 4.69662 6.75 5.71165 6.75 6.75C6.75 8.14239 7.30312 9.47775 8.28769 10.4623C9.27226 11.4469 10.6076 12 12 12ZM12 3C12.7417 3 13.4667 3.21994 14.0834 3.63199C14.7001 4.04405 15.1807 4.62972 15.4645 5.31494C15.7484 6.00016 15.8226 6.75416 15.6779 7.48159C15.5333 8.20902 15.1761 8.87721 14.6517 9.40165C14.1272 9.9261 13.459 10.2833 12.7316 10.4279C12.0042 10.5726 11.2502 10.4984 10.5649 10.2146C9.87971 9.93072 9.29404 9.45007 8.88199 8.83339C8.46993 8.21671 8.25 7.49168 8.25 6.75C8.25 5.75544 8.64509 4.80161 9.34835 4.09835C10.0516 3.39509 11.0054 3 12 3Z" fill="white"/>
<path d="M12.75 13.5H11.25C9.06196 13.5 6.96354 14.3692 5.41637 15.9164C3.86919 17.4635 3 19.562 3 21.75C3 21.9489 3.07902 22.1397 3.21967 22.2803C3.36032 22.421 3.55109 22.5 3.75 22.5H20.25C20.4489 22.5 20.6397 22.421 20.7803 22.2803C20.921 22.1397 21 21.9489 21 21.75C21 19.562 20.1308 17.4635 18.5836 15.9164C17.0365 14.3692 14.938 13.5 12.75 13.5ZM4.545 21C4.72942 19.3505 5.51513 17.8267 6.75201 16.7199C7.98889 15.6131 9.5902 15.0008 11.25 15H12.75C14.4098 15.0008 16.0111 15.6131 17.248 16.7199C18.4849 17.8267 19.2706 19.3505 19.455 21H4.545Z" fill="white"/>
</svg>
