<svg width="24" height="24" viewBox="0 0 24 24" fill="none" xmlns="http://www.w3.org/2000/svg">
<g clip-path="url(#clip0_85_55)">
<path d="M8.18259 10.3234H2.38556C1.79861 10.3228 1.23585 10.0895 0.820746 9.67451C0.405646 9.25954 0.172113 8.69685 0.171387 8.1099V2.38487C0.172113 1.79792 0.405646 1.23523 0.820746 0.820261C1.23585 0.40529 1.79861 0.171931 2.38556 0.171387H8.18259C8.76942 0.172113 9.332 0.405552 9.74695 0.820503C10.1619 1.23546 10.3953 1.79804 10.3961 2.38487V8.1099C10.3953 8.69673 10.1619 9.25932 9.74695 9.67427C9.332 10.0892 8.76942 10.3227 8.18259 10.3234ZM2.38556 1.88567C2.25315 1.88585 2.12622 1.93848 2.03253 2.03204C1.93884 2.1256 1.88603 2.25247 1.88567 2.38487V8.1099C1.88603 8.2423 1.93884 8.36917 2.03253 8.46273C2.12622 8.55629 2.25315 8.60892 2.38556 8.6091H8.18259C8.31493 8.60892 8.44179 8.55627 8.53537 8.46269C8.62895 8.36911 8.68161 8.24224 8.68179 8.1099V2.38487C8.68161 2.25253 8.62895 2.12566 8.53537 2.03209C8.44179 1.93851 8.31493 1.88585 8.18259 1.88567H2.38556Z" fill="#777777"/>
<path d="M8.21066 23.8285H2.41363C1.82662 23.8278 1.26386 23.5943 0.84878 23.1792C0.4337 22.7641 0.200189 22.2014 0.199463 21.6143V15.89C0.200189 15.3031 0.433722 14.7404 0.848822 14.3254C1.26392 13.9104 1.82669 13.6771 2.41363 13.6765H8.21066C8.79726 13.6776 9.35949 13.9112 9.77415 14.3261C10.1888 14.741 10.4221 15.3034 10.4228 15.89V21.6143C10.4222 22.2011 10.1891 22.7636 9.77439 23.1787C9.35971 23.5937 8.79737 23.8274 8.21066 23.8285ZM2.41363 15.3908C2.28123 15.391 2.15429 15.4436 2.0606 15.5372C1.96692 15.6307 1.91411 15.7576 1.91375 15.89V21.6143C1.91393 21.7469 1.96665 21.8739 2.06036 21.9676C2.15407 22.0613 2.28111 22.114 2.41363 22.1142H8.21066C8.34307 22.1139 8.46993 22.0611 8.56349 21.9674C8.65705 21.8737 8.70968 21.7467 8.70986 21.6143V15.89C8.70968 15.7577 8.65703 15.6308 8.56345 15.5372C8.46987 15.4436 8.343 15.391 8.21066 15.3908H2.41363Z" fill="#777777"/>
<path d="M21.6152 23.8285H15.8182C15.2312 23.8278 14.6684 23.5943 14.2533 23.1792C13.8382 22.7641 13.6047 22.2014 13.604 21.6143V15.89C13.6047 15.3031 13.8383 14.7404 14.2534 14.3254C14.6685 13.9104 15.2312 13.6771 15.8182 13.6765H21.6152C22.202 13.6772 22.7646 13.9107 23.1796 14.3256C23.5945 14.7406 23.828 15.3032 23.8287 15.89V21.6143C23.8281 22.2013 23.5948 22.7641 23.1798 23.1792C22.7648 23.5943 22.2022 23.8278 21.6152 23.8285ZM15.8182 15.3942C15.6858 15.3944 15.5588 15.447 15.4651 15.5406C15.3715 15.6342 15.3187 15.761 15.3183 15.8934V21.6178C15.3185 21.7503 15.3712 21.8773 15.4649 21.971C15.5586 22.0647 15.6857 22.1175 15.8182 22.1177H21.6152C21.7476 22.1173 21.8745 22.0645 21.968 21.9708C22.0616 21.8771 22.1142 21.7502 22.1144 21.6178V15.89C22.1142 15.7577 22.0616 15.6308 21.968 15.5372C21.8744 15.4436 21.7475 15.391 21.6152 15.3908L15.8182 15.3942Z" fill="#777777"/>
<path d="M18.7199 10.3235C17.718 10.316 16.7406 10.0121 15.9112 9.45004C15.0817 8.88796 14.4372 8.09289 14.0589 7.16505C13.6806 6.23722 13.5855 5.21815 13.7855 4.23634C13.9855 3.25452 14.4718 2.3539 15.1829 1.64802C15.894 0.942131 16.7982 0.462584 17.7815 0.269829C18.7648 0.0770741 19.7831 0.17974 20.7081 0.564884C21.6331 0.950028 22.4234 1.60041 22.9793 2.43403C23.5352 3.26766 23.8319 4.24721 23.8319 5.2492C23.8252 6.59945 23.2833 7.89193 22.325 8.84317C21.3666 9.79441 20.0702 10.3268 18.7199 10.3235ZM18.7199 1.8892C18.057 1.89664 17.4112 2.10001 16.8636 2.4737C16.316 2.8474 15.8912 3.37472 15.6427 3.9893C15.3942 4.60388 15.333 5.27824 15.4669 5.92751C15.6007 6.57679 15.9237 7.17195 16.3951 7.63809C16.8664 8.10423 17.4652 8.42051 18.1159 8.54713C18.7666 8.67375 19.4402 8.60504 20.052 8.34966C20.6638 8.09428 21.1863 7.66364 21.5539 7.11193C21.9214 6.56023 22.1176 5.91213 22.1176 5.2492C22.1122 4.35289 21.7514 3.49536 21.1144 2.86479C20.4774 2.23422 19.6162 1.88212 18.7199 1.88577V1.8892Z" fill="#777777"/>
</g>
<defs>
<clipPath id="clip0_85_55">
<rect width="24" height="24" fill="white"/>
</clipPath>
</defs>
</svg>
