<svg width="24" height="24" viewBox="0 0 24 24" fill="none" xmlns="http://www.w3.org/2000/svg">
<path d="M21.95 4.75H5.94995C5.39995 4.75 4.94995 5.2 4.94995 5.75V9.375C5.22495 9.3 5.54995 9.25 5.84995 9.25C6.04995 9.25 6.24995 9.275 6.44995 9.3V6.25H21.45V15.75H12.975L11.55 17.25H21.95C22.5 17.25 22.95 16.8 22.95 16.25V5.75C22.95 5.2 22.5 4.75 21.95 4.75Z" fill="#777777"/>
<path d="M5.87498 14.5C7.04998 14.5 7.99998 13.55 7.99998 12.375C7.99998 11.2 7.04998 10.25 5.87498 10.25C4.69998 10.25 3.74998 11.2 3.74998 12.375C3.72498 13.55 4.69998 14.5 5.87498 14.5Z" fill="#777777"/>
<path d="M14.05 12.0249C13.725 11.5249 13.075 11.3999 12.575 11.6999C12.475 11.7499 12.425 11.8499 12.375 11.8999L8.72505 15.6999C8.37505 15.5249 8.00005 15.3749 7.62505 15.2499C7.05005 15.1499 6.45005 15.0249 5.87505 15.0249C5.30005 15.0249 4.70005 15.1249 4.12505 15.2999C3.27505 15.5249 2.52505 15.9499 1.90005 16.4749C1.75005 16.6249 1.62505 16.8499 1.57505 17.0499L1.05005 19.2499H8.52505V19.2249L10.65 16.7499L13.925 13.2999C14.225 12.9999 14.325 12.4249 14.05 12.0249Z" fill="#777777"/>
</svg>
