<svg width="678" height="532" viewBox="0 0 678 532" fill="none" xmlns="http://www.w3.org/2000/svg">
<path d="M4.78021 500.33C3.59021 500.33 2.61021 499.92 1.86021 499.11C1.10021 498.3 0.720215 497.35 0.720215 496.27V390.74C0.720215 389.55 1.10021 388.58 1.86021 387.82C2.62021 387.06 3.59021 386.68 4.78021 386.68H80.6002C81.7902 386.68 82.7602 387.06 83.5202 387.82C84.2802 388.58 84.6602 389.55 84.6602 390.74V406C84.6602 407.19 84.2802 408.17 83.5202 408.92C82.7602 409.68 81.7902 410.06 80.6002 410.06H28.8102V431.98H77.0302C78.2202 431.98 79.1902 432.39 79.9502 433.2C80.7102 434.01 81.0902 435.01 81.0902 436.2V450.32C81.0902 451.4 80.7102 452.35 79.9502 453.16C79.1902 453.97 78.2202 454.38 77.0302 454.38H28.8102V476.95H81.9002C83.0902 476.95 84.0602 477.33 84.8202 478.09C85.5802 478.85 85.9602 479.82 85.9602 481.01V496.27C85.9602 497.35 85.5802 498.3 84.8202 499.11C84.0602 499.92 83.0902 500.33 81.9002 500.33H4.78021Z" fill="#555555"/>
<path d="M120.7 501.96C115.5 501.96 110.82 501.12 106.66 499.44C102.49 497.76 98.9201 495.27 95.9401 491.97C92.9601 488.67 90.6601 484.66 89.0401 479.96C87.4201 475.25 86.5001 469.87 86.2801 463.8C86.1701 461.64 86.1201 459.72 86.1201 458.04C86.1201 456.36 86.1701 454.44 86.2801 452.28C86.5001 446.54 87.4201 441.32 89.0401 436.61C90.6601 431.9 92.9401 427.9 95.8601 424.6C98.7801 421.3 102.35 418.76 106.58 416.97C110.8 415.18 115.51 414.29 120.71 414.29C126.12 414.29 130.78 415.18 134.67 416.97C138.57 418.76 141.87 421.06 144.57 423.87V389.12C144.57 387.93 144.95 386.96 145.71 386.2C146.47 385.44 147.44 385.06 148.63 385.06H168.44C169.52 385.06 170.47 385.44 171.28 386.2C172.09 386.96 172.5 387.93 172.5 389.12V496.28C172.5 497.36 172.09 498.31 171.28 499.12C170.47 499.93 169.52 500.34 168.44 500.34H150.09C148.9 500.34 147.92 499.93 147.17 499.12C146.41 498.31 146.03 497.36 146.03 496.28V491.08C143.43 494.22 140.08 496.82 135.96 498.87C131.85 500.93 126.76 501.96 120.7 501.96ZM129.63 480.2C133.2 480.2 136.04 479.42 138.15 477.85C140.26 476.28 141.83 474.25 142.86 471.76C143.89 469.27 144.46 466.56 144.56 463.64C144.67 461.48 144.72 459.42 144.72 457.47C144.72 455.52 144.66 453.52 144.56 451.46C144.45 448.76 143.85 446.24 142.77 443.91C141.69 441.58 140.06 439.69 137.9 438.23C135.73 436.77 132.97 436.04 129.62 436.04C126.05 436.04 123.21 436.8 121.1 438.31C118.99 439.83 117.47 441.88 116.55 444.48C115.63 447.08 115.06 449.95 114.84 453.09C114.52 456.45 114.52 459.8 114.84 463.16C115.06 466.3 115.62 469.17 116.55 471.76C117.47 474.36 118.99 476.42 121.1 477.93C123.22 479.45 126.06 480.2 129.63 480.2Z" fill="#555555"/>
<path d="M209.68 501.96C203.51 501.96 198.02 500.55 193.2 497.74C188.38 494.93 184.62 490.79 181.92 485.32C179.21 479.86 177.86 473.17 177.86 465.27V419.97C177.86 418.78 178.24 417.81 179 417.05C179.76 416.29 180.73 415.91 181.92 415.91H202.22C203.41 415.91 204.41 416.29 205.22 417.05C206.03 417.81 206.44 418.78 206.44 419.97V464.3C206.44 474.91 211.15 480.21 220.57 480.21C225.01 480.21 228.55 478.83 231.2 476.07C233.85 473.31 235.18 469.39 235.18 464.3V419.97C235.18 418.78 235.56 417.81 236.32 417.05C237.08 416.29 238.05 415.91 239.24 415.91H259.53C260.72 415.91 261.69 416.29 262.45 417.05C263.21 417.81 263.59 418.78 263.59 419.97V496.28C263.59 497.36 263.21 498.31 262.45 499.12C261.69 499.93 260.72 500.34 259.53 500.34H240.7C239.62 500.34 238.67 499.93 237.86 499.12C237.05 498.31 236.64 497.36 236.64 496.28V490.11C233.82 494.01 230.17 496.96 225.68 498.96C221.18 500.96 215.85 501.96 209.68 501.96Z" fill="#555555"/>
<path d="M273.81 500.33C272.62 500.33 271.64 499.92 270.89 499.11C270.13 498.3 269.75 497.35 269.75 496.27V419.96C269.75 418.77 270.13 417.8 270.89 417.04C271.65 416.28 272.62 415.9 273.81 415.9H291.51C292.7 415.9 293.67 416.28 294.43 417.04C295.19 417.8 295.57 418.77 295.57 419.96V425.48C297.73 422.56 300.77 419.99 304.66 417.77C308.56 415.55 313.16 414.39 318.46 414.28C331.02 413.95 339.62 418.61 344.27 428.24C346.76 424.13 350.3 420.77 354.9 418.17C359.5 415.57 364.56 414.27 370.08 414.27C375.71 414.27 380.77 415.54 385.26 418.09C389.75 420.63 393.35 424.53 396.06 429.78C398.76 435.03 400.12 441.82 400.12 450.16V496.27C400.12 497.35 399.74 498.3 398.98 499.11C398.22 499.92 397.25 500.33 396.06 500.33H377.23C376.04 500.33 375.04 499.92 374.23 499.11C373.42 498.3 373.01 497.35 373.01 496.27V451.3C373.01 447.51 372.47 444.51 371.39 442.29C370.31 440.07 368.85 438.47 367.01 437.5C365.17 436.53 363.06 436.04 360.68 436.04C358.73 436.04 356.81 436.53 354.92 437.5C353.02 438.47 351.51 440.07 350.37 442.29C349.23 444.51 348.66 447.51 348.66 451.3V496.27C348.66 497.35 348.28 498.3 347.52 499.11C346.76 499.92 345.79 500.33 344.6 500.33H325.77C324.58 500.33 323.6 499.92 322.85 499.11C322.09 498.3 321.71 497.35 321.71 496.27V451.3C321.71 447.51 321.11 444.51 319.92 442.29C318.73 440.07 317.21 438.47 315.37 437.5C313.53 436.53 311.53 436.04 309.36 436.04C307.3 436.04 305.33 436.53 303.43 437.5C301.53 438.47 300.02 440.07 298.88 442.29C297.74 444.51 297.18 447.46 297.18 451.14V496.28C297.18 497.36 296.77 498.31 295.96 499.12C295.15 499.93 294.2 500.34 293.12 500.34H273.81V500.33Z" fill="#555555"/>
<path d="M409.38 403.73C408.19 403.73 407.21 403.35 406.46 402.59C405.7 401.83 405.32 400.86 405.32 399.67V385.06C405.32 383.98 405.7 383.03 406.46 382.22C407.22 381.41 408.19 381 409.38 381H428.86C429.94 381 430.89 381.41 431.7 382.22C432.51 383.03 432.92 383.98 432.92 385.06V399.67C432.92 400.86 432.51 401.84 431.7 402.59C430.89 403.35 429.94 403.73 428.86 403.73H409.38ZM409.55 500.33C408.36 500.33 407.38 499.92 406.63 499.11C405.87 498.3 405.49 497.35 405.49 496.27V419.96C405.49 418.77 405.87 417.8 406.63 417.04C407.39 416.28 408.36 415.9 409.55 415.9H428.71C429.9 415.9 430.87 416.28 431.63 417.04C432.39 417.8 432.77 418.77 432.77 419.96V496.27C432.77 497.35 432.39 498.3 431.63 499.11C430.87 499.92 429.9 500.33 428.71 500.33H409.55Z" fill="#555555"/>
<path d="M442.99 500.33C441.8 500.33 440.82 499.92 440.07 499.11C439.31 498.3 438.93 497.35 438.93 496.27V419.96C438.93 418.77 439.31 417.8 440.07 417.04C440.83 416.28 441.8 415.9 442.99 415.9H461.66C462.85 415.9 463.85 416.28 464.66 417.04C465.47 417.8 465.88 418.77 465.88 419.96V426.13C468.58 422.78 472.21 419.96 476.76 417.69C481.31 415.42 486.66 414.28 492.83 414.28C499.11 414.28 504.66 415.69 509.47 418.5C514.28 421.32 518.07 425.43 520.84 430.84C523.6 436.25 524.98 442.96 524.98 450.97V496.27C524.98 497.35 524.6 498.3 523.84 499.11C523.08 499.92 522.11 500.33 520.92 500.33H500.46C499.38 500.33 498.43 499.92 497.62 499.11C496.81 498.3 496.4 497.35 496.4 496.27V451.94C496.4 446.85 495.18 442.93 492.75 440.17C490.32 437.41 486.71 436.03 481.95 436.03C477.51 436.03 473.97 437.41 471.32 440.17C468.67 442.93 467.34 446.85 467.34 451.94V496.27C467.34 497.35 466.93 498.3 466.12 499.11C465.31 499.92 464.36 500.33 463.28 500.33H442.99Z" fill="#555555"/>
<path d="M572.72 500.33C565.79 500.33 559.81 499.22 554.78 497C549.75 494.78 545.87 491.32 543.17 486.61C540.46 481.9 539.11 475.81 539.11 468.34V437.17H526.44C525.25 437.17 524.25 436.79 523.44 436.03C522.63 435.27 522.22 434.3 522.22 433.11V419.96C522.22 418.77 522.63 417.8 523.44 417.04C524.25 416.28 525.25 415.9 526.44 415.9H539.11V389.11C539.11 387.92 539.52 386.95 540.33 386.19C541.14 385.43 542.09 385.05 543.17 385.05H562C563.19 385.05 564.16 385.43 564.92 386.19C565.68 386.95 566.06 387.92 566.06 389.11V415.9H586.35C587.54 415.9 588.54 416.28 589.35 417.04C590.16 417.8 590.57 418.77 590.57 419.96V433.11C590.57 434.3 590.16 435.28 589.35 436.03C588.54 436.79 587.54 437.17 586.35 437.17H566.06V466.07C566.06 469.75 566.76 472.67 568.17 474.84C569.58 477.01 571.96 478.09 575.31 478.09H587.81C589 478.09 589.97 478.47 590.73 479.23C591.49 479.99 591.87 480.96 591.87 482.15V496.28C591.87 497.36 591.49 498.31 590.73 499.12C589.97 499.93 589 500.34 587.81 500.34H572.72V500.33Z" fill="#555555"/>
<path d="M608.11 531.18C607.14 531.18 606.32 530.86 605.67 530.21C605.02 529.56 604.7 528.75 604.7 527.77C604.7 527.55 604.73 527.25 604.78 526.88C604.83 526.5 604.97 526.09 605.19 525.66L617.85 495.14L586.68 421.43C586.36 420.67 586.19 420.02 586.19 419.48C586.41 418.51 586.84 417.67 587.49 416.96C588.14 416.26 588.95 415.9 589.92 415.9H608.43C609.84 415.9 610.89 416.25 611.6 416.96C612.3 417.67 612.82 418.45 613.14 419.31L631.65 466.56L650.65 419.31C651.08 418.44 651.65 417.66 652.36 416.96C653.06 416.26 654.12 415.9 655.53 415.9H673.71C674.68 415.9 675.52 416.25 676.23 416.96C676.93 417.67 677.29 418.45 677.29 419.31C677.29 419.85 677.13 420.56 676.8 421.42L630.85 527.77C630.52 528.64 629.98 529.42 629.23 530.12C628.47 530.82 627.39 531.18 625.98 531.18H608.11Z" fill="#555555"/>
<path d="M334.54 268.07L200.91 134.45L334.54 0.820068L468.16 134.45L334.54 268.07Z" fill="url(#paint0_linear_115_4138)"/>
<path d="M403.3 353.4V199.31H265.26V353.4L334.41 292.39L403.3 353.4Z" fill="url(#paint1_linear_115_4138)"/>
<defs>
<linearGradient id="paint0_linear_115_4138" x1="334.536" y1="55.7932" x2="334.536" y2="321.277" gradientUnits="userSpaceOnUse">
<stop offset="1.4385e-07" stop-color="#5627FF"/>
<stop offset="1" stop-color="#0000BF"/>
</linearGradient>
<linearGradient id="paint1_linear_115_4138" x1="335.627" y1="313.029" x2="327.708" y2="97.9059" gradientUnits="userSpaceOnUse">
<stop offset="1.4385e-07" stop-color="#5627FF"/>
<stop offset="1" stop-color="#0000BF"/>
</linearGradient>
</defs>
</svg>
